<?xml version="1.0" encoding="UTF-8" standalone="no"?>
<svg
   xmlns:dc="http://purl.org/dc/elements/1.1/"
   xmlns:cc="http://creativecommons.org/ns#"
   xmlns:rdf="http://www.w3.org/1999/02/22-rdf-syntax-ns#"
   xmlns:svg="http://www.w3.org/2000/svg"
   xmlns="http://www.w3.org/2000/svg"
   xmlns:sodipodi="http://sodipodi.sourceforge.net/DTD/sodipodi-0.dtd"
   xmlns:inkscape="http://www.inkscape.org/namespaces/inkscape"
   version="1.1"
   id="svg2"
   xml:space="preserve"
   width="787.20898"
   height="815.62988"
   viewBox="0 0 787.20899 815.62989"
   sodipodi:docname="plotmodelG1methG2meth.svg"
   inkscape:version="1.0.2 (e86c870879, 2021-01-15)"><metadata
     id="metadata8"><rdf:RDF><cc:Work
         rdf:about=""><dc:format>image/svg+xml</dc:format><dc:type
           rdf:resource="http://purl.org/dc/dcmitype/StillImage" /><dc:title /></cc:Work></rdf:RDF></metadata><defs
     id="defs6"><clipPath
       clipPathUnits="userSpaceOnUse"
       id="clipPath24"><path
         d="M 46.684,54.191 H 519.536 V 575.132 H 46.684 Z"
         id="path22" /></clipPath><clipPath
       clipPathUnits="userSpaceOnUse"
       id="clipPath32"><path
         d="M 0,0 H 590 V 621 H 0 Z"
         id="path30" /></clipPath></defs><sodipodi:namedview
     pagecolor="#ffffff"
     bordercolor="#666666"
     borderopacity="1"
     objecttolerance="10"
     gridtolerance="10"
     guidetolerance="10"
     inkscape:pageopacity="0"
     inkscape:pageshadow="2"
     inkscape:window-width="1680"
     inkscape:window-height="908"
     id="namedview4"
     showgrid="false"
     fit-margin-top="0"
     fit-margin-left="0"
     fit-margin-right="0"
     fit-margin-bottom="0"
     inkscape:zoom="0.8551419"
     inkscape:cx="455.94476"
     inkscape:cy="362.15515"
     inkscape:window-x="0"
     inkscape:window-y="128"
     inkscape:window-maximized="0"
     inkscape:current-layer="g154"
     inkscape:document-rotation="0" /><g
     id="g10"
     inkscape:groupmode="layer"
     inkscape:label="plotmodelG1methG2meth"
     transform="matrix(1.3333333,0,0,1.3333333,0.8916583,-12.047597)"><g
       id="g12"><g
         id="g14"
         transform="scale(1,-1)"><path
           d="m 13.203,-31.043 h 576 v -576 h -576 z"
           style="fill:#ffffff;fill-opacity:1;fill-rule:nonzero;stroke:#ffffff;stroke-width:1.07;stroke-linecap:round;stroke-linejoin:round;stroke-miterlimit:10;stroke-dasharray:none;stroke-opacity:1"
           id="path16" /></g></g><g
       id="g18"><g
         id="g20"
         clip-path="url(#clipPath24)"><g
           id="g26"><g
             id="g28" /><g
             id="g152"><g
               clip-path="url(#clipPath32)"
               id="g150"><g
                 id="g148"><path
                   d="M 46.684,54.191 H 519.536 V 575.132 H 46.684 Z"
                   style="fill:#ffffff;fill-opacity:1;fill-rule:nonzero;stroke:none"
                   id="path34" /><g
                   transform="scale(1,-1)"
                   id="g38"><path
                     d="M 46.684,-553.723 H 519.535"
                     style="fill:none;stroke:#ebebeb;stroke-width:0.53;stroke-linecap:butt;stroke-linejoin:round;stroke-miterlimit:10;stroke-dasharray:none;stroke-opacity:1"
                     id="path36" /></g><g
                   transform="scale(1,-1)"
                   id="g42"><path
                     d="M 46.684,-460.723 H 519.535"
                     style="fill:none;stroke:#ebebeb;stroke-width:0.53;stroke-linecap:butt;stroke-linejoin:round;stroke-miterlimit:10;stroke-dasharray:none;stroke-opacity:1"
                     id="path40" /></g><g
                   transform="scale(1,-1)"
                   id="g46"><path
                     d="M 46.684,-367.723 H 519.535"
                     style="fill:none;stroke:#ebebeb;stroke-width:0.53;stroke-linecap:butt;stroke-linejoin:round;stroke-miterlimit:10;stroke-dasharray:none;stroke-opacity:1"
                     id="path44" /></g><g
                   transform="scale(1,-1)"
                   id="g50"><path
                     d="M 46.684,-274.723 H 519.535"
                     style="fill:none;stroke:#ebebeb;stroke-width:0.53;stroke-linecap:butt;stroke-linejoin:round;stroke-miterlimit:10;stroke-dasharray:none;stroke-opacity:1"
                     id="path48" /></g><g
                   transform="scale(1,-1)"
                   id="g54"><path
                     d="M 46.684,-181.734 H 519.535"
                     style="fill:none;stroke:#ebebeb;stroke-width:0.53;stroke-linecap:butt;stroke-linejoin:round;stroke-miterlimit:10;stroke-dasharray:none;stroke-opacity:1"
                     id="path52" /></g><g
                   transform="scale(1,-1)"
                   id="g58"><path
                     d="M 46.684,-88.734 H 519.535"
                     style="fill:none;stroke:#ebebeb;stroke-width:0.53;stroke-linecap:butt;stroke-linejoin:round;stroke-miterlimit:10;stroke-dasharray:none;stroke-opacity:1"
                     id="path56" /></g><g
                   transform="scale(1,-1)"
                   id="g62"><path
                     d="M 121.902,-575.133 V -54.191"
                     style="fill:none;stroke:#ebebeb;stroke-width:0.53;stroke-linecap:butt;stroke-linejoin:round;stroke-miterlimit:10;stroke-dasharray:none;stroke-opacity:1"
                     id="path60" /></g><g
                   transform="scale(1,-1)"
                   id="g66"><path
                     d="M 229.375,-575.133 V -54.191"
                     style="fill:none;stroke:#ebebeb;stroke-width:0.53;stroke-linecap:butt;stroke-linejoin:round;stroke-miterlimit:10;stroke-dasharray:none;stroke-opacity:1"
                     id="path64" /></g><g
                   transform="scale(1,-1)"
                   id="g70"><path
                     d="M 336.844,-575.133 V -54.191"
                     style="fill:none;stroke:#ebebeb;stroke-width:0.53;stroke-linecap:butt;stroke-linejoin:round;stroke-miterlimit:10;stroke-dasharray:none;stroke-opacity:1"
                     id="path68" /></g><g
                   transform="scale(1,-1)"
                   id="g74"><path
                     d="M 444.305,-575.133 V -54.191"
                     style="fill:none;stroke:#ebebeb;stroke-width:0.53;stroke-linecap:butt;stroke-linejoin:round;stroke-miterlimit:10;stroke-dasharray:none;stroke-opacity:1"
                     id="path72" /></g><g
                   transform="scale(1,-1)"
                   id="g78"><path
                     d="M 46.684,-507.223 H 519.535"
                     style="fill:none;stroke:#ebebeb;stroke-width:1.07;stroke-linecap:butt;stroke-linejoin:round;stroke-miterlimit:10;stroke-dasharray:none;stroke-opacity:1"
                     id="path76" /></g><g
                   transform="scale(1,-1)"
                   id="g82"><path
                     d="M 46.684,-414.223 H 519.535"
                     style="fill:none;stroke:#ebebeb;stroke-width:1.07;stroke-linecap:butt;stroke-linejoin:round;stroke-miterlimit:10;stroke-dasharray:none;stroke-opacity:1"
                     id="path80" /></g><g
                   transform="scale(1,-1)"
                   id="g86"><path
                     d="M 46.684,-321.223 H 519.535"
                     style="fill:none;stroke:#ebebeb;stroke-width:1.07;stroke-linecap:butt;stroke-linejoin:round;stroke-miterlimit:10;stroke-dasharray:none;stroke-opacity:1"
                     id="path84" /></g><g
                   transform="scale(1,-1)"
                   id="g90"><path
                     d="M 46.684,-228.234 H 519.535"
                     style="fill:none;stroke:#ebebeb;stroke-width:1.07;stroke-linecap:butt;stroke-linejoin:round;stroke-miterlimit:10;stroke-dasharray:none;stroke-opacity:1"
                     id="path88" /></g><g
                   transform="scale(1,-1)"
                   id="g94"><path
                     d="M 46.684,-135.234 H 519.535"
                     style="fill:none;stroke:#ebebeb;stroke-width:1.07;stroke-linecap:butt;stroke-linejoin:round;stroke-miterlimit:10;stroke-dasharray:none;stroke-opacity:1"
                     id="path92" /></g><g
                   transform="scale(1,-1)"
                   id="g98"><path
                     d="M 68.172,-575.133 V -54.191"
                     style="fill:none;stroke:#ebebeb;stroke-width:1.07;stroke-linecap:butt;stroke-linejoin:round;stroke-miterlimit:10;stroke-dasharray:none;stroke-opacity:1"
                     id="path96" /></g><g
                   transform="scale(1,-1)"
                   id="g102"><path
                     d="M 175.645,-575.133 V -54.191"
                     style="fill:none;stroke:#ebebeb;stroke-width:1.07;stroke-linecap:butt;stroke-linejoin:round;stroke-miterlimit:10;stroke-dasharray:none;stroke-opacity:1"
                     id="path100" /></g><g
                   transform="scale(1,-1)"
                   id="g106"><path
                     d="M 283.102,-575.133 V -54.191"
                     style="fill:none;stroke:#ebebeb;stroke-width:1.07;stroke-linecap:butt;stroke-linejoin:round;stroke-miterlimit:10;stroke-dasharray:none;stroke-opacity:1"
                     id="path104" /></g><g
                   transform="scale(1,-1)"
                   id="g110"><path
                     d="M 390.574,-575.133 V -54.191"
                     style="fill:none;stroke:#ebebeb;stroke-width:1.07;stroke-linecap:butt;stroke-linejoin:round;stroke-miterlimit:10;stroke-dasharray:none;stroke-opacity:1"
                     id="path108" /></g><g
                   transform="scale(1,-1)"
                   id="g114"><path
                     d="M 498.043,-575.133 V -54.191"
                     style="fill:none;stroke:#ebebeb;stroke-width:1.07;stroke-linecap:butt;stroke-linejoin:round;stroke-miterlimit:10;stroke-dasharray:none;stroke-opacity:1"
                     id="path112" /></g><g
                   transform="scale(1,-1)"
                   id="g118"><path
                     d="m 68.172,-538.773 21.492,22.41 21.5,22.41 21.488,22.41 21.493,22.418 21.5,22.41 21.488,22.41 21.492,22.422 21.5,22.41 42.977,44.821 21.5,22.418 21.492,22.41 21.488,22.41 21.5,22.41 21.492,22.422 21.488,22.41 21.5,22.41 21.493,22.41 21.488,22.418 21.5,22.411"
                     style="fill:none;stroke:#e69f00;stroke-width:1.49;stroke-linecap:butt;stroke-linejoin:round;stroke-miterlimit:10;stroke-dasharray:none;stroke-opacity:1"
                     id="path116" /></g><g
                   transform="scale(1,-1)"
                   id="g122"><path
                     d="m 68.172,-520.012 21.492,18.571 21.5,18.558 21.488,18.571 21.493,18.558 21.5,18.57 21.488,18.559 21.492,18.57 21.5,18.563 21.488,18.57 21.489,18.559 21.5,18.57 21.492,18.559 21.488,18.57 21.5,18.562 21.492,18.567 21.488,18.562 21.5,18.571 21.493,18.558 21.488,18.571 21.5,18.558"
                     style="fill:none;stroke:#56b4e9;stroke-width:1.49;stroke-linecap:butt;stroke-linejoin:round;stroke-miterlimit:10;stroke-dasharray:none;stroke-opacity:1"
                     id="path120" /></g><g
                   transform="scale(1,-1)"
                   id="g126"><path
                     d="m 68.172,-472.895 21.492,16.782 21.5,16.789 21.488,16.781 21.493,16.781 21.5,16.789 21.488,16.782 21.492,16.777 21.5,16.789 42.977,33.563 21.5,16.789 21.492,16.781 21.488,16.777 21.5,16.793 21.492,16.777 21.488,16.782 21.5,16.789 21.493,16.781 21.488,16.781 21.5,16.789"
                     style="fill:none;stroke:#009e73;stroke-width:1.49;stroke-linecap:butt;stroke-linejoin:round;stroke-miterlimit:10;stroke-dasharray:none;stroke-opacity:1"
                     id="path124" /></g><g
                   transform="scale(1,-1)"
                   id="g130"><path
                     d="m 68.172,-486.594 21.492,17.199 21.5,17.192 21.488,17.191 21.493,17.188 21.5,17.191 21.488,17.192 21.492,17.199 21.5,17.187 42.977,34.383 21.5,17.188 21.492,17.199 21.488,17.191 21.5,17.192 21.492,17.187 21.488,17.192 21.5,17.191 21.493,17.199 21.488,17.192 21.5,17.187"
                     style="fill:none;stroke:#cc79a7;stroke-width:1.49;stroke-linecap:butt;stroke-linejoin:round;stroke-miterlimit:10;stroke-dasharray:none;stroke-opacity:1"
                     id="path128" /></g><path
                   d="m 68.172,526.102 21.492,-22.387 21.5,-22.383 21.488,-22.391 21.493,-22.398 21.5,-22.391 21.488,-22.398 21.492,-22.402 21.5,-22.411 21.488,-22.398 21.489,-22.41 21.5,-22.41 21.492,-22.418 21.488,-22.422 21.5,-22.418 21.492,-22.422 21.488,-22.43 21.5,-22.429 21.493,-22.43 21.488,-22.442 21.5,-22.437 v 25.297 l -21.5,22.383 -21.488,22.386 -21.493,22.403 -21.5,22.39 -21.488,22.399 -21.492,22.402 -21.5,22.406 -21.488,22.403 -21.492,22.41 -21.5,22.418 -21.489,22.41 -21.488,22.422 -21.5,22.418 -21.492,22.43 -21.488,22.421 -21.5,22.43 -21.493,22.442 -21.488,22.429 -21.5,22.438 -21.492,22.441 z"
                   style="fill:#e69f00;fill-opacity:0.149;fill-rule:nonzero;stroke:none"
                   id="path132" /><path
                   d="m 68.172,506.543 21.492,-18.43 21.5,-18.449 21.488,-18.461 21.493,-18.469 21.5,-18.492 21.488,-18.5 21.492,-18.519 21.5,-18.532 21.488,-18.539 21.489,-18.57 21.5,-18.57 21.492,-18.59 21.488,-18.61 21.5,-18.621 21.492,-18.629 21.488,-18.648 21.5,-18.66 21.493,-18.68 21.488,-18.691 21.5,-18.699 v 27.058 l -21.5,18.43 -21.488,18.441 -21.493,18.449 -21.5,18.473 -21.488,18.477 -21.492,18.492 -21.5,18.508 -21.488,18.531 -21.492,18.539 -21.5,18.551 -21.489,18.57 -21.488,18.582 -21.5,18.598 -21.492,18.609 -21.488,18.633 -21.5,18.648 -21.493,18.649 -21.488,18.672 -21.5,18.691 -21.492,18.688 z"
                   style="fill:#56b4e9;fill-opacity:0.149;fill-rule:nonzero;stroke:none"
                   id="path134" /><path
                   d="m 68.172,458.691 21.492,-16.558 21.5,-16.59 21.488,-16.602 21.493,-16.629 21.5,-16.648 21.488,-16.672 21.492,-16.687 21.5,-16.723 21.488,-16.738 21.489,-16.77 21.5,-16.789 21.492,-16.812 21.488,-16.84 21.5,-16.86 21.492,-16.89 21.488,-16.91 21.5,-16.93 21.493,-16.961 21.488,-16.969 21.5,-17 v 28.231 l -21.5,16.57 -21.488,16.59 -21.493,16.609 -21.5,16.641 -21.488,16.648 -21.492,16.68 -21.5,16.711 -21.488,16.719 -21.492,16.75 -21.5,16.781 -21.489,16.801 -21.488,16.828 -21.5,16.851 -21.492,16.872 -21.488,16.89 -21.5,16.918 -21.493,16.942 -21.488,16.968 -21.5,16.981 -21.492,17 z"
                   style="fill:#009e73;fill-opacity:0.149;fill-rule:nonzero;stroke:none"
                   id="path136" /><path
                   d="m 68.172,472.285 21.492,-16.961 21.5,-16.992 21.488,-17 21.493,-17.027 21.5,-17.051 21.488,-17.082 21.492,-17.098 21.5,-17.133 21.488,-17.148 21.489,-17.18 21.5,-17.211 21.492,-17.23 21.488,-17.258 21.5,-17.289 21.492,-17.313 21.488,-17.339 21.5,-17.36 21.493,-17.379 21.488,-17.41 21.5,-17.422 v 28.7 l -21.5,16.96 -21.488,16.981 -21.493,17 -21.5,17.019 -21.488,17.051 -21.492,17.071 -21.5,17.101 -21.488,17.117 -21.492,17.153 -21.5,17.179 -21.489,17.2 -21.488,17.23 -21.5,17.258 -21.492,17.281 -21.488,17.309 -21.5,17.332 -21.493,17.347 -21.488,17.383 -21.5,17.399 -21.492,17.422 z"
                   style="fill:#cc79a7;fill-opacity:0.149;fill-rule:nonzero;stroke:none"
                   id="path138" /><g
                   transform="scale(1,-1)"
                   id="g142"><path
                     d="M -426.176,-1855.691 992.395,1213.246"
                     style="fill:none;stroke:#000000;stroke-width:1.07;stroke-linecap:butt;stroke-linejoin:round;stroke-miterlimit:10;stroke-dasharray:none;stroke-opacity:1"
                     id="path140" /></g><g
                   transform="scale(1,-1)"
                   id="g146"><path
                     d="M 46.684,-54.191 H 519.536 V -575.132 H 46.684 Z"
                     style="fill:none;stroke:#333333;stroke-width:1.07;stroke-linecap:round;stroke-linejoin:round;stroke-miterlimit:10;stroke-dasharray:none;stroke-opacity:1"
                     id="path144" /></g></g></g></g></g></g></g><g
       id="g154"><text
         xml:space="preserve"
         style="font-size:20px;line-height:1;font-family:sans-serif;letter-spacing:0px;word-spacing:0px;stroke-width:0.75"
         x="129.95197"
         y="616.39813"
         id="text1465-3"><tspan
           sodipodi:role="line"
           x="129.95197"
           y="616.39813"
           style="font-style:normal;font-variant:normal;font-weight:normal;font-stretch:normal;font-size:20px;font-family:helvetica;-inkscape-font-specification:helvetica;stroke-width:0.75"
           id="tspan1479-7">Methylation value of offspring (in %)</tspan></text><path
         d="m 37.8435,127.762 c -1.328,0 -2.547,0.609 -3.297,1.593 -0.922,1.297 -1.39,3.25 -1.39,5.954 0,4.953 1.609,7.562 4.687,7.562 3.047,0 4.703,-2.609 4.703,-7.437 0,-2.829 -0.437,-4.735 -1.39,-6.079 -0.75,-1 -1.953,-1.593 -3.313,-1.593 z m 0,1.578 c 1.938,0 2.875,1.969 2.875,5.937 0,4.172 -0.922,6.11 -2.906,6.11 -1.891,0 -2.844,-2.016 -2.844,-6.047 0,-4.031 0.953,-6 2.875,-6 z"
         style="fill:#4d4d4d;fill-opacity:1;fill-rule:nonzero;stroke:none"
         id="path174" /><g
         id="g178"
         transform="scale(1,-1)"><path
           d="m 43.941,-507.223 h 2.743"
           style="fill:none;stroke:#333333;stroke-width:1.07;stroke-linecap:butt;stroke-linejoin:round;stroke-miterlimit:10;stroke-dasharray:none;stroke-opacity:1"
           id="path180" /></g><g
         id="g182"
         transform="scale(1,-1)"><path
           d="m 43.941,-414.223 h 2.743"
           style="fill:none;stroke:#333333;stroke-width:1.07;stroke-linecap:butt;stroke-linejoin:round;stroke-miterlimit:10;stroke-dasharray:none;stroke-opacity:1"
           id="path184" /></g><g
         id="g186"
         transform="scale(1,-1)"><path
           d="m 43.941,-321.223 h 2.743"
           style="fill:none;stroke:#333333;stroke-width:1.07;stroke-linecap:butt;stroke-linejoin:round;stroke-miterlimit:10;stroke-dasharray:none;stroke-opacity:1"
           id="path188" /></g><g
         id="g190"
         transform="scale(1,-1)"><path
           d="m 43.941,-228.234 h 2.743"
           style="fill:none;stroke:#333333;stroke-width:1.07;stroke-linecap:butt;stroke-linejoin:round;stroke-miterlimit:10;stroke-dasharray:none;stroke-opacity:1"
           id="path192" /></g><path
         d="m 25.551,507.641 h 0.984 c 1.938,0 2.969,0.921 2.969,2.687 0,1.828 -1.109,2.953 -2.953,2.953 -1.969,0 -2.922,-1 -3.031,-3.14 h -1.797 c 0.093,1.171 0.297,1.937 0.64,2.593 0.75,1.407 2.141,2.125 4.11,2.125 2.953,0 4.859,-1.781 4.859,-4.562 0,-1.859 -0.719,-2.875 -2.437,-3.485 1.343,-0.546 2.015,-1.546 2.015,-3.031 0,-2.515 -1.64,-4.031 -4.375,-4.031 -2.906,0 -4.437,1.625 -4.5,4.719 h 1.781 c 0.016,-0.891 0.094,-1.391 0.329,-1.844 0.406,-0.828 1.296,-1.313 2.406,-1.313 1.578,0 2.531,0.954 2.531,2.532 0,1.031 -0.359,1.656 -1.156,2 -0.485,0.203 -1.141,0.281 -2.375,0.312 z"
         style="fill:#4d4d4d;fill-opacity:1;fill-rule:nonzero;stroke:none"
         id="path156" /><path
         d="m 37.906,499.75 c -1.328,0 -2.547,0.609 -3.297,1.594 -0.921,1.297 -1.39,3.25 -1.39,5.953 0,4.953 1.609,7.562 4.687,7.562 3.047,0 4.703,-2.609 4.703,-7.437 0,-2.828 -0.437,-4.734 -1.39,-6.078 -0.75,-1 -1.953,-1.594 -3.313,-1.594 z m 0,1.578 c 1.938,0 2.875,1.969 2.875,5.938 0,4.172 -0.922,6.109 -2.906,6.109 -1.891,0 -2.844,-2.016 -2.844,-6.047 0,-4.031 0.953,-6 2.875,-6 z"
         style="fill:#4d4d4d;fill-opacity:1;fill-rule:nonzero;stroke:none"
         id="path158" /><path
         d="m 27.73,417.844 v 3.547 h 1.782 v -3.547 h 2.125 v -1.594 h -2.125 v -9.5 h -1.313 l -6.531,9.219 v 1.875 z m 0,-1.594 h -4.5 l 4.5,-6.469 z"
         style="fill:#4d4d4d;fill-opacity:1;fill-rule:nonzero;stroke:none"
         id="path160" /><path
         d="m 37.93,406.75 c -1.328,0 -2.547,0.609 -3.297,1.594 -0.922,1.297 -1.391,3.25 -1.391,5.953 0,4.953 1.61,7.562 4.688,7.562 3.047,0 4.703,-2.609 4.703,-7.437 0,-2.828 -0.438,-4.734 -1.391,-6.078 -0.75,-1 -1.953,-1.594 -3.312,-1.594 z m 0,1.578 c 1.937,0 2.875,1.969 2.875,5.938 0,4.172 -0.922,6.109 -2.907,6.109 -1.89,0 -2.843,-2.016 -2.843,-6.047 0,-4.031 0.953,-6 2.875,-6 z"
         style="fill:#4d4d4d;fill-opacity:1;fill-rule:nonzero;stroke:none"
         id="path162" /><path
         d="m 30.707,314.031 h -7.406 l -1.078,7.813 h 1.64 c 0.828,-0.985 1.516,-1.328 2.657,-1.328 1.921,0 3.109,1.312 3.109,3.437 0,2.063 -1.188,3.328 -3.141,3.328 -1.547,0 -2.5,-0.797 -2.937,-2.422 H 21.77 c 0.25,1.188 0.453,1.75 0.875,2.282 0.812,1.093 2.265,1.718 3.89,1.718 2.891,0 4.922,-2.109 4.922,-5.14 0,-2.844 -1.891,-4.781 -4.641,-4.781 -1.015,0 -1.828,0.265 -2.656,0.859 l 0.578,-4 h 5.969 z"
         style="fill:#4d4d4d;fill-opacity:1;fill-rule:nonzero;stroke:none"
         id="path164" /><path
         d="m 37.887,313.75 c -1.328,0 -2.547,0.609 -3.297,1.594 -0.922,1.297 -1.391,3.25 -1.391,5.953 0,4.953 1.61,7.562 4.688,7.562 3.047,0 4.703,-2.609 4.703,-7.437 0,-2.828 -0.438,-4.734 -1.391,-6.078 -0.75,-1 -1.953,-1.594 -3.312,-1.594 z m 0,1.578 c 1.937,0 2.875,1.969 2.875,5.938 0,4.172 -0.922,6.109 -2.907,6.109 -1.89,0 -2.843,-2.016 -2.843,-6.047 0,-4.031 0.953,-6 2.875,-6 z"
         style="fill:#4d4d4d;fill-opacity:1;fill-rule:nonzero;stroke:none"
         id="path166" /><path
         d="m 31.102,224.574 c -0.344,-2.39 -1.875,-3.812 -4.063,-3.812 -1.578,0 -3,0.765 -3.844,2.078 -0.922,1.437 -1.297,3.234 -1.297,5.875 0,2.469 0.344,4.031 1.204,5.328 0.781,1.203 2.031,1.828 3.609,1.828 2.734,0 4.703,-2.047 4.703,-4.906 0,-2.688 -1.828,-4.594 -4.391,-4.594 -1.421,0 -2.531,0.531 -3.312,1.594 0.031,-3.625 1.156,-5.625 3.203,-5.625 1.25,0 2.125,0.812 2.406,2.234 z m -4.313,3.375 c 1.734,0 2.797,1.219 2.797,3.156 0,1.844 -1.219,3.188 -2.859,3.188 -1.657,0 -2.907,-1.406 -2.907,-3.266 0,-1.828 1.219,-3.078 2.969,-3.078 z"
         style="fill:#4d4d4d;fill-opacity:1;fill-rule:nonzero;stroke:none"
         id="path168" /><path
         d="m 37.844,220.762 c -1.328,0 -2.547,0.609 -3.297,1.593 -0.922,1.297 -1.391,3.25 -1.391,5.954 0,4.953 1.61,7.562 4.688,7.562 3.047,0 4.703,-2.609 4.703,-7.437 0,-2.829 -0.438,-4.735 -1.391,-6.079 -0.75,-1 -1.953,-1.593 -3.312,-1.593 z m 0,1.578 c 1.937,0 2.875,1.969 2.875,5.937 0,4.172 -0.922,6.11 -2.907,6.11 -1.89,0 -2.843,-2.016 -2.843,-6.047 0,-4.031 0.953,-6 2.875,-6 z"
         style="fill:#4d4d4d;fill-opacity:1;fill-rule:nonzero;stroke:none"
         id="path170" /><path
         d="m 31.535,128.043 h -9.594 v 1.766 h 7.75 c -3.421,4.875 -4.812,7.875 -5.89,12.593 h 1.906 c 0.781,-4.593 2.594,-8.547 5.828,-12.859 z"
         style="fill:#4d4d4d;fill-opacity:1;fill-rule:nonzero;stroke:none"
         id="path172" /><g
         id="g194"
         transform="scale(1,-1)"><path
           d="m 43.941,-135.234 h 2.743"
           style="fill:none;stroke:#333333;stroke-width:1.07;stroke-linecap:butt;stroke-linejoin:round;stroke-miterlimit:10;stroke-dasharray:none;stroke-opacity:1"
           id="path196" /></g><g
         id="g198"
         transform="scale(1,-1)"><path
           d="m 68.172,-577.875 v 2.742"
           style="fill:none;stroke:#333333;stroke-width:1.07;stroke-linecap:butt;stroke-linejoin:round;stroke-miterlimit:10;stroke-dasharray:none;stroke-opacity:1"
           id="path200" /></g><g
         id="g202"
         transform="scale(1,-1)"><path
           d="m 175.645,-577.875 v 2.742"
           style="fill:none;stroke:#333333;stroke-width:1.07;stroke-linecap:butt;stroke-linejoin:round;stroke-miterlimit:10;stroke-dasharray:none;stroke-opacity:1"
           id="path204" /></g><g
         id="g206"
         transform="scale(1,-1)"><path
           d="m 283.102,-577.875 v 2.742"
           style="fill:none;stroke:#333333;stroke-width:1.07;stroke-linecap:butt;stroke-linejoin:round;stroke-miterlimit:10;stroke-dasharray:none;stroke-opacity:1"
           id="path208" /></g><g
         id="g210"
         transform="scale(1,-1)"><path
           d="m 390.574,-577.875 v 2.742"
           style="fill:none;stroke:#333333;stroke-width:1.07;stroke-linecap:butt;stroke-linejoin:round;stroke-miterlimit:10;stroke-dasharray:none;stroke-opacity:1"
           id="path212" /></g><g
         id="g214"
         transform="scale(1,-1)"><path
           d="m 498.043,-577.875 v 2.742"
           style="fill:none;stroke:#333333;stroke-width:1.07;stroke-linecap:butt;stroke-linejoin:round;stroke-miterlimit:10;stroke-dasharray:none;stroke-opacity:1"
           id="path216" /></g><g
         id="g1560"
         transform="translate(0,3)"><path
           d="m 68.141,575.82 c -1.329,0 -2.547,0.61 -3.297,1.594 -0.922,1.297 -1.391,3.25 -1.391,5.953 0,4.953 1.609,7.563 4.688,7.563 3.047,0 4.703,-2.61 4.703,-7.438 0,-2.828 -0.438,-4.734 -1.391,-6.078 -0.75,-1 -1.953,-1.594 -3.312,-1.594 z m 0,1.578 c 1.937,0 2.875,1.969 2.875,5.938 0,4.172 -0.922,6.109 -2.907,6.109 -1.89,0 -2.843,-2.015 -2.843,-6.047 0,-4.031 0.953,-6 2.875,-6 z"
           style="fill:#4d4d4d;fill-opacity:1;fill-rule:nonzero;stroke:none"
           id="path218" /><path
           d="m 174.68,588.695 h -7.563 c 0.188,-1.218 0.844,-1.984 2.594,-3.047 l 2.031,-1.14 c 2,-1.11 3.031,-2.61 3.031,-4.422 0,-1.203 -0.484,-2.344 -1.328,-3.125 -0.859,-0.781 -1.906,-1.141 -3.265,-1.141 -1.828,0 -3.172,0.641 -3.969,1.907 -0.5,0.765 -0.734,1.671 -0.766,3.156 h 1.782 c 0.062,-1 0.187,-1.578 0.421,-2.063 0.469,-0.89 1.391,-1.437 2.469,-1.437 1.625,0 2.844,1.172 2.844,2.75 0,1.172 -0.672,2.187 -1.953,2.922 l -1.86,1.093 c -3,1.719 -3.875,3.094 -4.031,6.297 h 9.563 z"
           style="fill:#4d4d4d;fill-opacity:1;fill-rule:nonzero;stroke:none"
           id="path220" /><path
           d="m 185.328,576.102 h -7.406 l -1.078,7.812 h 1.64 c 0.828,-0.984 1.516,-1.328 2.657,-1.328 1.921,0 3.109,1.312 3.109,3.437 0,2.063 -1.188,3.329 -3.141,3.329 -1.547,0 -2.5,-0.797 -2.937,-2.422 h -1.781 c 0.25,1.187 0.453,1.75 0.875,2.281 0.812,1.094 2.265,1.719 3.89,1.719 2.891,0 4.922,-2.11 4.922,-5.141 0,-2.844 -1.89,-4.781 -4.64,-4.781 -1.016,0 -1.829,0.265 -2.657,0.859 l 0.578,-4 h 5.969 z"
           style="fill:#4d4d4d;fill-opacity:1;fill-rule:nonzero;stroke:none"
           id="path222" /><path
           d="m 281.566,576.102 h -7.406 l -1.078,7.812 h 1.641 c 0.828,-0.984 1.515,-1.328 2.656,-1.328 1.922,0 3.109,1.312 3.109,3.437 0,2.063 -1.187,3.329 -3.14,3.329 -1.547,0 -2.5,-0.797 -2.938,-2.422 h -1.781 c 0.25,1.187 0.453,1.75 0.875,2.281 0.812,1.094 2.266,1.719 3.891,1.719 2.89,0 4.921,-2.11 4.921,-5.141 0,-2.844 -1.89,-4.781 -4.64,-4.781 -1.016,0 -1.828,0.265 -2.656,0.859 l 0.578,-4 h 5.968 z"
           style="fill:#4d4d4d;fill-opacity:1;fill-rule:nonzero;stroke:none"
           id="path224" /><path
           d="m 288.75,575.82 c -1.328,0 -2.547,0.61 -3.297,1.594 -0.922,1.297 -1.391,3.25 -1.391,5.953 0,4.953 1.61,7.563 4.688,7.563 3.047,0 4.703,-2.61 4.703,-7.438 0,-2.828 -0.437,-4.734 -1.391,-6.078 -0.75,-1 -1.953,-1.594 -3.312,-1.594 z m 0,1.578 c 1.938,0 2.875,1.969 2.875,5.938 0,4.172 -0.922,6.109 -2.906,6.109 -1.891,0 -2.844,-2.015 -2.844,-6.047 0,-4.031 0.953,-6 2.875,-6 z"
           style="fill:#4d4d4d;fill-opacity:1;fill-rule:nonzero;stroke:none"
           id="path226" /><path
           d="m 389.832,576.023 h -9.594 v 1.766 h 7.75 c -3.422,4.875 -4.812,7.875 -5.89,12.594 h 1.906 c 0.781,-4.594 2.594,-8.547 5.828,-12.86 z"
           style="fill:#4d4d4d;fill-opacity:1;fill-rule:nonzero;stroke:none"
           id="path228" /><path
           d="m 400.199,576.023 h -7.406 l -1.078,7.813 h 1.64 c 0.829,-0.984 1.516,-1.328 2.657,-1.328 1.922,0 3.109,1.312 3.109,3.437 0,2.063 -1.187,3.328 -3.141,3.328 -1.546,0 -2.5,-0.796 -2.937,-2.421 h -1.781 c 0.25,1.187 0.453,1.75 0.875,2.281 0.812,1.094 2.265,1.719 3.89,1.719 2.891,0 4.922,-2.11 4.922,-5.141 0,-2.844 -1.89,-4.781 -4.64,-4.781 -1.016,0 -1.829,0.265 -2.657,0.859 l 0.578,-4 h 5.969 z"
           style="fill:#4d4d4d;fill-opacity:1;fill-rule:nonzero;stroke:none"
           id="path230" /><path
           d="m 486.102,580.039 v 10.422 h 1.781 V 575.82 h -1.172 c -0.641,2.25 -1.047,2.547 -3.797,2.922 v 1.297 z"
           style="fill:#4d4d4d;fill-opacity:1;fill-rule:nonzero;stroke:none"
           id="path232" /><path
           d="m 497.676,575.82 c -1.328,0 -2.547,0.61 -3.297,1.594 -0.922,1.297 -1.391,3.25 -1.391,5.953 0,4.953 1.61,7.563 4.688,7.563 3.047,0 4.703,-2.61 4.703,-7.438 0,-2.828 -0.438,-4.734 -1.391,-6.078 -0.75,-1 -1.953,-1.594 -3.312,-1.594 z m 0,1.578 c 1.937,0 2.875,1.969 2.875,5.938 0,4.172 -0.922,6.109 -2.906,6.109 -1.891,0 -2.844,-2.015 -2.844,-6.047 0,-4.031 0.953,-6 2.875,-6 z"
           style="fill:#4d4d4d;fill-opacity:1;fill-rule:nonzero;stroke:none"
           id="path234" /><path
           d="m 508.934,575.82 c -1.329,0 -2.547,0.61 -3.297,1.594 -0.922,1.297 -1.391,3.25 -1.391,5.953 0,4.953 1.609,7.563 4.688,7.563 3.046,0 4.703,-2.61 4.703,-7.438 0,-2.828 -0.438,-4.734 -1.391,-6.078 -0.75,-1 -1.953,-1.594 -3.312,-1.594 z m 0,1.578 c 1.937,0 2.875,1.969 2.875,5.938 0,4.172 -0.922,6.109 -2.907,6.109 -1.89,0 -2.843,-2.015 -2.843,-6.047 0,-4.031 0.953,-6 2.875,-6 z"
           style="fill:#4d4d4d;fill-opacity:1;fill-rule:nonzero;stroke:none"
           id="path236" /></g><g
         id="g1364"
         transform="translate(259.95688,293.63553)"><path
           d="M 49.684,55.691 H 211.246 V 232.472 H 49.684 Z"
           style="fill:#ffffff;fill-opacity:1;fill-rule:nonzero;stroke:none"
           id="path176" /><g
           id="g352"><path
             d="m 94.48,81.398 h 68.907 c 4.91,0 8.863,0.508 8.863,1.141 v 23.418 c 0,0.633 -3.953,1.145 -8.863,1.145 H 94.48 c -4.91,0 -8.867,-0.512 -8.867,-1.145 V 82.539 c 0,-0.633 3.957,-1.141 8.867,-1.141 z"
             style="fill:none;stroke:#e69f00;stroke-width:6.7684;stroke-linecap:butt;stroke-linejoin:round;stroke-miterlimit:4;stroke-dasharray:none;stroke-opacity:1"
             id="path354" /></g><path
           d="m 94.48,81.398 h 68.907 c 4.91,0 8.863,0.508 8.863,1.141 v 23.418 c 0,0.633 -3.953,1.145 -8.863,1.145 H 94.48 c -4.91,0 -8.867,-0.512 -8.867,-1.145 V 82.539 c 0,-0.633 3.957,-1.141 8.867,-1.141 z"
           style="fill:#e59f00;fill-opacity:1;fill-rule:nonzero;stroke:none"
           id="path356" /><path
           d="m 87.66,85.324 3.11,-0.015 c 0.765,0 1.375,-0.219 1.906,-0.704 0.578,-0.531 0.828,-1.171 0.828,-2.078 0,-1.859 -1.109,-2.89 -3.063,-2.875 l -4.062,0.016 0.047,9.859 1.25,-0.015 z m 0,-1.109 -0.015,-3.453 h 2.625 c 1.203,-0.016 1.921,0.625 1.921,1.718 0,1.079 -0.703,1.719 -1.906,1.735 z"
           style="fill:#000000;fill-opacity:1;fill-rule:nonzero;stroke:none"
           id="path358" /><path
           d="m 101.082,88.801 c -0.109,0.015 -0.172,0.015 -0.234,0.015 -0.391,0 -0.61,-0.203 -0.61,-0.546 l -0.015,-4.172 c -0.016,-1.25 -0.938,-1.938 -2.688,-1.922 -1.047,0 -1.859,0.297 -2.359,0.844 -0.313,0.359 -0.453,0.765 -0.469,1.468 l 1.141,-0.015 c 0.078,-0.86 0.593,-1.25 1.656,-1.25 1.016,0 1.578,0.375 1.594,1.047 v 0.312 c -0.016,0.484 -0.266,0.656 -1.172,0.781 -1.61,0.203 -1.844,0.25 -2.281,0.422 -0.829,0.375 -1.25,1 -1.235,1.922 0,1.281 0.906,2.094 2.328,2.078 0.891,0 1.61,-0.312 2.407,-1.047 0.093,0.719 0.437,1.032 1.171,1.032 0.25,0 0.391,-0.032 0.766,-0.125 z m -1.984,-1.563 c 0,0.375 -0.094,0.61 -0.438,0.922 -0.453,0.422 -1.015,0.641 -1.672,0.641 -0.875,0 -1.39,-0.406 -1.406,-1.125 0,-0.75 0.484,-1.141 1.703,-1.313 1.203,-0.172 1.438,-0.218 1.813,-0.39 z"
           style="fill:#000000;fill-opacity:1;fill-rule:nonzero;stroke:none"
           id="path360" /><path
           d="m 104.625,82.348 h -1.172 l -0.015,-1.938 -1.11,0.016 0.016,1.937 h -0.969 v 0.922 h 0.969 l 0.031,5.36 c 0,0.734 0.484,1.125 1.359,1.109 0.297,0 0.547,-0.031 0.922,-0.094 v -0.953 c -0.156,0.047 -0.312,0.063 -0.547,0.063 -0.484,0 -0.625,-0.141 -0.625,-0.641 l -0.031,-4.859 h 1.172 z"
           style="fill:#000000;fill-opacity:1;fill-rule:nonzero;stroke:none"
           id="path362" /><path
           d="m 111.711,86.238 c 0,-1.078 -0.078,-1.718 -0.297,-2.25 -0.453,-1.172 -1.547,-1.859 -2.875,-1.859 -1.969,0 -3.234,1.516 -3.219,3.859 0.016,2.344 1.235,3.766 3.235,3.75 1.625,-0.015 2.75,-0.937 3.015,-2.484 h -1.14 c -0.297,0.953 -0.938,1.437 -1.844,1.437 -0.719,0 -1.328,-0.328 -1.703,-0.921 -0.281,-0.407 -0.375,-0.797 -0.391,-1.5 z m -5.188,-0.89 c 0.079,-1.328 0.875,-2.172 2.016,-2.172 1.141,0 1.953,0.875 1.953,2.14 z"
           style="fill:#000000;fill-opacity:1;fill-rule:nonzero;stroke:none"
           id="path364" /><path
           d="m 113.215,82.316 0.031,7.094 1.125,-0.015 -0.016,-3.688 c 0,-1.703 0.704,-2.453 2.266,-2.422 v -1.14 c -0.187,-0.032 -0.297,-0.047 -0.437,-0.047 -0.719,0 -1.282,0.437 -1.938,1.484 v -1.281 z"
           style="fill:#000000;fill-opacity:1;fill-rule:nonzero;stroke:none"
           id="path366" /><path
           d="m 117.738,82.297 0.032,7.094 1.125,-0.016 -0.016,-3.906 c 0,-1.453 0.75,-2.407 1.906,-2.407 0.891,0 1.469,0.532 1.485,1.391 l 0.015,4.906 h 1.125 L 123.395,84 c -0.016,-1.172 -0.907,-1.938 -2.266,-1.922 -1.063,0 -1.734,0.406 -2.359,1.391 v -1.188 z"
           style="fill:#000000;fill-opacity:1;fill-rule:nonzero;stroke:none"
           id="path368" /><path
           d="m 131.57,88.668 c -0.109,0.016 -0.172,0.016 -0.234,0.016 -0.391,0 -0.609,-0.204 -0.609,-0.547 l -0.016,-4.172 c -0.016,-1.25 -0.938,-1.938 -2.688,-1.922 -1.046,0 -1.859,0.297 -2.359,0.844 -0.312,0.359 -0.453,0.765 -0.469,1.468 l 1.141,-0.015 c 0.078,-0.86 0.594,-1.25 1.656,-1.25 1.016,0 1.578,0.375 1.594,1.047 v 0.312 c -0.016,0.485 -0.266,0.656 -1.172,0.781 -1.609,0.204 -1.844,0.25 -2.281,0.422 -0.828,0.375 -1.25,1 -1.235,1.922 0,1.281 0.907,2.094 2.329,2.078 0.89,0 1.609,-0.312 2.406,-1.047 0.094,0.719 0.437,1.032 1.172,1.032 0.25,0 0.39,-0.032 0.765,-0.125 z m -1.984,-1.563 c 0,0.375 -0.094,0.61 -0.438,0.922 -0.453,0.422 -1.015,0.641 -1.671,0.641 -0.875,0 -1.391,-0.406 -1.407,-1.125 0,-0.75 0.485,-1.141 1.703,-1.313 1.204,-0.171 1.438,-0.218 1.813,-0.39 z"
           style="fill:#000000;fill-opacity:1;fill-rule:nonzero;stroke:none"
           id="path370" /><path
           d="m 133.871,79.449 -1.141,0.016 0.047,9.859 1.141,-0.015 z"
           style="fill:#000000;fill-opacity:1;fill-rule:nonzero;stroke:none"
           id="path372" /><path
           d="m 145.539,86.09 c 0,-1.078 -0.078,-1.719 -0.297,-2.25 -0.453,-1.172 -1.547,-1.86 -2.875,-1.86 -1.969,0 -3.234,1.516 -3.219,3.86 0.016,2.344 1.235,3.765 3.235,3.75 1.625,-0.016 2.75,-0.938 3.015,-2.485 h -1.14 c -0.297,0.954 -0.938,1.438 -1.844,1.438 -0.719,0 -1.328,-0.328 -1.703,-0.922 -0.281,-0.406 -0.375,-0.797 -0.391,-1.5 z m -5.187,-0.891 c 0.078,-1.328 0.875,-2.172 2.015,-2.172 1.141,0 1.953,0.875 1.953,2.141 z"
           style="fill:#000000;fill-opacity:1;fill-rule:nonzero;stroke:none"
           id="path374" /><path
           d="m 149.621,82.152 h -1.172 v -1.109 c 0,-0.469 0.25,-0.719 0.781,-0.719 0.094,0 0.141,0 0.391,0.016 l -0.016,-0.938 c -0.25,-0.047 -0.406,-0.062 -0.64,-0.062 -1.031,0 -1.656,0.609 -1.641,1.625 v 1.203 h -0.953 v 0.922 h 0.953 l 0.031,6.172 1.125,-0.016 -0.031,-6.172 h 1.172 z m 3.641,-0.015 h -1.172 v -1.11 c 0,-0.468 0.25,-0.718 0.781,-0.718 0.094,0 0.141,0 0.391,0.015 l -0.016,-0.937 c -0.25,-0.047 -0.406,-0.063 -0.641,-0.063 -1.031,0 -1.656,0.61 -1.64,1.625 v 1.203 h -0.953 v 0.922 h 0.953 l 0.031,6.172 1.125,-0.016 -0.031,-6.171 h 1.172 z"
           style="fill:#000000;fill-opacity:1;fill-rule:nonzero;stroke:none"
           id="path376" /><path
           d="m 160.582,86.027 c 0,-1.078 -0.078,-1.718 -0.297,-2.25 -0.453,-1.172 -1.547,-1.859 -2.875,-1.859 -1.969,0 -3.234,1.516 -3.219,3.859 0.016,2.344 1.235,3.766 3.235,3.75 1.625,-0.015 2.75,-0.937 3.015,-2.484 h -1.14 c -0.297,0.953 -0.938,1.437 -1.844,1.437 -0.719,0 -1.328,-0.328 -1.703,-0.921 -0.281,-0.407 -0.375,-0.797 -0.391,-1.5 z m -5.187,-0.89 c 0.078,-1.328 0.875,-2.172 2.015,-2.172 1.141,0 1.953,0.875 1.953,2.14 z"
           style="fill:#000000;fill-opacity:1;fill-rule:nonzero;stroke:none"
           id="path378" /><path
           d="m 167.539,84.461 c -0.078,-0.703 -0.219,-1.141 -0.484,-1.531 -0.5,-0.672 -1.344,-1.047 -2.328,-1.047 -1.922,0.015 -3.157,1.531 -3.141,3.89 0.016,2.282 1.234,3.735 3.156,3.719 1.688,0 2.75,-1.031 2.875,-2.765 l -1.14,0.015 c -0.172,1.141 -0.75,1.703 -1.719,1.703 -1.235,0 -1.985,-1 -2,-2.672 0,-1.781 0.719,-2.843 1.953,-2.843 0.937,0 1.531,0.547 1.687,1.547 z"
           style="fill:#000000;fill-opacity:1;fill-rule:nonzero;stroke:none"
           id="path380" /><path
           d="m 171.457,82.055 h -1.172 l -0.015,-1.938 -1.11,0.016 0.016,1.937 h -0.969 v 0.922 h 0.969 l 0.031,5.36 c 0,0.734 0.484,1.125 1.359,1.109 0.297,0 0.547,-0.031 0.922,-0.094 v -0.953 c -0.156,0.047 -0.312,0.063 -0.547,0.063 -0.484,0 -0.625,-0.141 -0.625,-0.641 l -0.031,-4.859 h 1.172 z"
           style="fill:#000000;fill-opacity:1;fill-rule:nonzero;stroke:none"
           id="path382" /><path
           d="m 119.863,98.988 c -2.015,0.016 -3.203,1.438 -3.187,3.828 0.015,2.391 1.203,3.797 3.219,3.782 2.015,-0.016 3.218,-1.438 3.203,-3.766 -0.016,-2.469 -1.188,-3.859 -3.235,-3.844 z m 0,1.047 c 1.282,0 2.047,1.031 2.047,2.781 0.016,1.688 -0.765,2.735 -2.015,2.735 -1.25,0 -2.016,-1.016 -2.032,-2.735 0,-1.718 0.75,-2.781 2,-2.781 z"
           style="fill:#000000;fill-opacity:1;fill-rule:nonzero;stroke:none"
           id="path384" /><path
           d="m 124.648,99.172 0.032,7.094 1.125,-0.016 -0.016,-3.906 c 0,-1.453 0.75,-2.406 1.906,-2.406 0.891,0 1.469,0.531 1.485,1.39 l 0.015,4.906 h 1.125 l -0.015,-5.359 c -0.016,-1.172 -0.907,-1.937 -2.266,-1.922 -1.062,0 -1.734,0.406 -2.359,1.391 v -1.188 z"
           style="fill:#000000;fill-opacity:1;fill-rule:nonzero;stroke:none"
           id="path386" /><path
           d="m 133.262,96.359 -1.141,0.016 0.047,9.859 1.141,-0.015 z"
           style="fill:#000000;fill-opacity:1;fill-rule:nonzero;stroke:none"
           id="path388" /><path
           d="m 139.398,99.113 -1.937,5.532 -1.844,-5.516 h -1.203 l 2.438,7.109 -0.438,1.125 c -0.187,0.5 -0.422,0.688 -0.891,0.703 -0.187,0 -0.359,-0.031 -0.609,-0.078 l 0.016,1.016 c 0.218,0.109 0.453,0.172 0.75,0.172 0.375,-0.016 0.765,-0.141 1.062,-0.36 0.344,-0.25 0.547,-0.546 0.75,-1.125 l 3.125,-8.593 z"
           style="fill:#000000;fill-opacity:1;fill-rule:nonzero;stroke:none"
           id="path390" /><g
           id="g392"><path
             d="m 92.672,128.922 h 72.519 c 4.914,0 8.868,0.512 8.868,1.144 v 23.379 c 0,0.633 -3.954,1.141 -8.868,1.141 H 92.672 c -4.91,0 -8.863,-0.508 -8.863,-1.141 v -23.379 c 0,-0.632 3.953,-1.144 8.863,-1.144 z"
             style="fill:none;stroke:#56b4e9;stroke-width:6.9029;stroke-linecap:butt;stroke-linejoin:round;stroke-miterlimit:4;stroke-dasharray:none;stroke-opacity:1"
             id="path394" /></g><path
           d="m 92.672,128.922 h 72.519 c 4.914,0 8.868,0.512 8.868,1.144 v 23.379 c 0,0.633 -3.954,1.141 -8.868,1.141 H 92.672 c -4.91,0 -8.863,-0.508 -8.863,-1.141 v -23.379 c 0,-0.632 3.953,-1.144 8.863,-1.144 z"
           style="fill:#56b4e9;fill-opacity:1;fill-rule:nonzero;stroke:none"
           id="path396" /><path
           d="m 87.801,127.004 c -2.828,0 -4.735,2.109 -4.719,5.187 0.016,3.094 1.922,5.157 4.781,5.157 1.203,-0.016 2.25,-0.375 3.047,-1.063 1.078,-0.922 1.703,-2.453 1.703,-4.062 -0.015,-3.172 -1.922,-5.235 -4.812,-5.219 z m 0.015,1.109 c 2.141,-0.015 3.516,1.594 3.532,4.11 0,2.375 -1.407,4 -3.485,4.015 -2.109,0 -3.531,-1.609 -3.531,-4.047 -0.016,-2.437 1.391,-4.078 3.484,-4.078 z"
           style="fill:#000000;fill-opacity:1;fill-rule:nonzero;stroke:none"
           id="path398" /><path
           d="m 96.59,129.895 h -1.172 v -1.11 c 0,-0.469 0.25,-0.719 0.781,-0.719 0.094,0 0.141,0 0.391,0.016 l -0.016,-0.937 c -0.25,-0.047 -0.406,-0.063 -0.64,-0.063 -1.032,0 -1.657,0.609 -1.641,1.625 v 1.203 H 93.34 v 0.922 h 0.953 l 0.031,6.172 1.125,-0.016 -0.031,-6.172 h 1.172 z m 3.64,-0.016 h -1.171 v -1.109 c 0,-0.469 0.25,-0.719 0.781,-0.719 0.094,0 0.14,0 0.39,0.015 l -0.015,-0.937 c -0.25,-0.047 -0.406,-0.063 -0.641,-0.063 -1.031,0 -1.656,0.61 -1.64,1.625 v 1.204 H 96.98 v 0.921 h 0.954 l 0.031,6.172 1.125,-0.015 -0.031,-6.172 h 1.171 z"
           style="fill:#000000;fill-opacity:1;fill-rule:nonzero;stroke:none"
           id="path400" /><path
           d="m 106.531,131.832 c -0.031,-1.406 -0.937,-2.172 -2.578,-2.172 -1.656,0.016 -2.719,0.875 -2.703,2.188 0,1.109 0.562,1.64 2.234,2.031 l 1.063,0.25 c 0.781,0.187 1.094,0.469 1.094,0.969 0.015,0.687 -0.641,1.125 -1.641,1.125 -0.594,0 -1.109,-0.172 -1.406,-0.469 -0.172,-0.203 -0.25,-0.391 -0.328,-0.891 h -1.204 c 0.079,1.641 1,2.422 2.844,2.407 1.797,0 2.922,-0.891 2.906,-2.266 0,-1.047 -0.593,-1.641 -2,-1.953 l -1.078,-0.266 c -0.922,-0.219 -1.312,-0.515 -1.312,-1.015 -0.016,-0.657 0.562,-1.063 1.484,-1.063 0.906,0 1.391,0.391 1.438,1.141 z"
           style="fill:#000000;fill-opacity:1;fill-rule:nonzero;stroke:none"
           id="path402" /><path
           d="m 108.137,139.895 1.14,-0.016 -0.015,-3.703 c 0.593,0.734 1.25,1.062 2.172,1.062 1.843,-0.015 3.031,-1.484 3.015,-3.75 -0.015,-2.39 -1.187,-3.875 -3.062,-3.859 -0.953,0 -1.735,0.437 -2.266,1.297 v -1.078 h -1.031 z m 3.062,-9.204 c 1.25,0 2.078,1.079 2.078,2.766 0,1.609 -0.812,2.719 -2.047,2.719 -1.203,0 -1.984,-1.078 -1.984,-2.735 0,-1.671 0.75,-2.75 1.953,-2.75 z"
           style="fill:#000000;fill-opacity:1;fill-rule:nonzero;stroke:none"
           id="path404" /><path
           d="m 115.812,129.816 0.032,7.094 1.125,-0.015 -0.016,-3.688 c 0,-1.703 0.703,-2.453 2.266,-2.422 v -1.14 c -0.188,-0.032 -0.297,-0.047 -0.438,-0.047 -0.719,0 -1.281,0.437 -1.937,1.484 v -1.281 z"
           style="fill:#000000;fill-opacity:1;fill-rule:nonzero;stroke:none"
           id="path406" /><path
           d="m 121.426,129.781 -1.125,0.016 0.031,7.094 1.125,-0.016 z m -0.016,-2.765 -1.14,0.015 0.015,1.422 1.141,-0.015 z"
           style="fill:#000000;fill-opacity:1;fill-rule:nonzero;stroke:none"
           id="path408" /><path
           d="m 123.352,129.781 0.031,7.094 1.125,-0.016 -0.016,-3.906 c 0,-1.453 0.75,-2.406 1.906,-2.406 0.891,0 1.469,0.531 1.485,1.391 l 0.015,4.906 h 1.125 l -0.015,-5.36 c -0.016,-1.172 -0.906,-1.937 -2.266,-1.922 -1.062,0 -1.734,0.407 -2.359,1.391 v -1.187 z"
           style="fill:#000000;fill-opacity:1;fill-rule:nonzero;stroke:none"
           id="path410" /><path
           d="m 135.387,129.719 v 1.031 c -0.578,-0.844 -1.188,-1.219 -2.094,-1.219 -1.703,0.016 -2.906,1.61 -2.891,3.891 0,1.187 0.297,2.062 0.907,2.766 0.531,0.609 1.218,0.953 1.937,0.953 0.859,0 1.469,-0.375 2.063,-1.266 v 0.359 c 0,1.891 -0.516,2.594 -1.922,2.594 -0.953,0 -1.469,-0.375 -1.578,-1.187 l -1.157,0.015 c 0.125,1.313 1.172,2.125 2.703,2.125 1.047,0 1.907,-0.343 2.375,-0.922 0.532,-0.671 0.735,-1.547 0.735,-3.203 l -0.031,-5.937 z m -1.985,0.859 c 1.203,0 1.891,1 1.891,2.797 0.016,1.719 -0.672,2.719 -1.859,2.719 -1.157,0 -1.829,-1 -1.844,-2.735 0,-1.734 0.656,-2.781 1.812,-2.781 z"
           style="fill:#000000;fill-opacity:1;fill-rule:nonzero;stroke:none"
           id="path412" /><path
           d="m 148.152,133.59 c 0,-1.078 -0.078,-1.719 -0.297,-2.25 -0.453,-1.172 -1.546,-1.86 -2.875,-1.86 -1.968,0 -3.234,1.516 -3.218,3.86 0.015,2.344 1.234,3.765 3.234,3.75 1.625,-0.016 2.75,-0.938 3.016,-2.485 h -1.141 c -0.297,0.954 -0.937,1.438 -1.844,1.438 -0.718,0 -1.328,-0.328 -1.703,-0.922 -0.281,-0.406 -0.375,-0.797 -0.39,-1.5 z m -5.187,-0.891 c 0.078,-1.328 0.875,-2.172 2.015,-2.172 1.141,0 1.954,0.875 1.954,2.141 z"
           style="fill:#000000;fill-opacity:1;fill-rule:nonzero;stroke:none"
           id="path414" /><path
           d="m 152.234,129.652 h -1.172 v -1.109 c 0,-0.469 0.25,-0.719 0.782,-0.719 0.094,0 0.14,0 0.39,0.016 l -0.015,-0.938 c -0.25,-0.047 -0.407,-0.062 -0.641,-0.062 -1.031,0 -1.656,0.609 -1.64,1.625 v 1.203 h -0.954 v 0.922 h 0.954 l 0.031,6.172 1.125,-0.016 -0.032,-6.172 h 1.172 z m 3.641,-0.015 h -1.172 v -1.11 c 0,-0.468 0.25,-0.718 0.781,-0.718 0.094,0 0.141,0 0.391,0.015 l -0.016,-0.937 c -0.25,-0.047 -0.406,-0.063 -0.64,-0.063 -1.031,0 -1.657,0.61 -1.641,1.625 v 1.203 h -0.953 v 0.922 h 0.953 l 0.031,6.172 1.125,-0.016 -0.031,-6.171 h 1.172 z"
           style="fill:#000000;fill-opacity:1;fill-rule:nonzero;stroke:none"
           id="path416" /><path
           d="m 163.191,133.527 c 0,-1.078 -0.078,-1.718 -0.296,-2.25 -0.454,-1.172 -1.547,-1.859 -2.875,-1.859 -1.969,0 -3.235,1.516 -3.219,3.859 0.015,2.344 1.234,3.766 3.234,3.75 1.625,-0.015 2.75,-0.937 3.016,-2.484 h -1.141 c -0.297,0.953 -0.937,1.437 -1.844,1.437 -0.718,0 -1.328,-0.328 -1.703,-0.921 -0.281,-0.407 -0.375,-0.797 -0.39,-1.5 z m -5.187,-0.89 c 0.078,-1.328 0.875,-2.172 2.016,-2.172 1.14,0 1.953,0.875 1.953,2.14 z"
           style="fill:#000000;fill-opacity:1;fill-rule:nonzero;stroke:none"
           id="path418" /><path
           d="m 170.148,131.961 c -0.078,-0.703 -0.218,-1.141 -0.484,-1.531 -0.5,-0.672 -1.344,-1.047 -2.328,-1.047 -1.922,0.015 -3.156,1.531 -3.141,3.89 0.016,2.282 1.235,3.735 3.157,3.719 1.687,0 2.75,-1.031 2.875,-2.765 l -1.141,0.015 c -0.172,1.141 -0.75,1.703 -1.719,1.703 -1.234,0 -1.984,-1 -2,-2.672 0,-1.781 0.719,-2.843 1.953,-2.843 0.938,0 1.532,0.547 1.688,1.547 z"
           style="fill:#000000;fill-opacity:1;fill-rule:nonzero;stroke:none"
           id="path420" /><path
           d="m 174.066,129.559 h -1.171 l -0.016,-1.938 -1.109,0.016 0.015,1.937 h -0.969 v 0.922 h 0.969 l 0.031,5.359 c 0,0.735 0.485,1.125 1.36,1.11 0.297,0 0.547,-0.031 0.922,-0.094 v -0.953 c -0.157,0.047 -0.313,0.062 -0.547,0.062 -0.485,0 -0.625,-0.14 -0.625,-0.64 l -0.031,-4.86 h 1.171 z"
           style="fill:#000000;fill-opacity:1;fill-rule:nonzero;stroke:none"
           id="path422" /><path
           d="m 119.863,146.5 c -2.015,0.016 -3.203,1.438 -3.187,3.828 0.015,2.391 1.203,3.797 3.219,3.781 2.015,-0.015 3.218,-1.437 3.203,-3.765 -0.016,-2.469 -1.188,-3.86 -3.235,-3.844 z m 0,1.047 c 1.282,0 2.047,1.031 2.047,2.781 0.016,1.688 -0.765,2.734 -2.015,2.734 -1.25,0 -2.016,-1.015 -2.032,-2.734 0,-1.719 0.75,-2.781 2,-2.781 z"
           style="fill:#000000;fill-opacity:1;fill-rule:nonzero;stroke:none"
           id="path424" /><path
           d="m 124.648,146.684 0.032,7.093 1.125,-0.015 -0.016,-3.907 c 0,-1.453 0.75,-2.406 1.906,-2.406 0.891,0 1.469,0.531 1.485,1.391 l 0.015,4.906 h 1.125 l -0.015,-5.359 c -0.016,-1.172 -0.907,-1.938 -2.266,-1.922 -1.062,0 -1.734,0.406 -2.359,1.39 v -1.187 z"
           style="fill:#000000;fill-opacity:1;fill-rule:nonzero;stroke:none"
           id="path426" /><path
           d="m 133.262,143.871 -1.141,0.016 0.047,9.859 1.141,-0.016 z"
           style="fill:#000000;fill-opacity:1;fill-rule:nonzero;stroke:none"
           id="path428" /><path
           d="m 139.398,146.625 -1.937,5.531 -1.844,-5.515 h -1.203 l 2.438,7.109 -0.438,1.125 c -0.187,0.5 -0.422,0.687 -0.891,0.703 -0.187,0 -0.359,-0.031 -0.609,-0.078 l 0.016,1.016 c 0.218,0.109 0.453,0.172 0.75,0.172 0.375,-0.016 0.765,-0.141 1.062,-0.36 0.344,-0.25 0.547,-0.547 0.75,-1.125 l 3.125,-8.594 z"
           style="fill:#000000;fill-opacity:1;fill-rule:nonzero;stroke:none"
           id="path430" /><g
           id="g432"><path
             d="m 95.988,175.23 h 65.891 c 4.91,0 8.867,0.508 8.867,1.141 v 9.012 c 0,0.633 -3.957,1.14 -8.867,1.14 H 95.988 c -4.914,0 -8.867,-0.507 -8.867,-1.14 v -9.012 c 0,-0.633 3.953,-1.141 8.867,-1.141 z"
             style="fill:none;stroke:#009e73;stroke-width:4.4081;stroke-linecap:butt;stroke-linejoin:round;stroke-miterlimit:4;stroke-dasharray:none;stroke-opacity:1"
             id="path434" /></g><path
           d="m 95.988,175.23 h 65.891 c 4.91,0 8.867,0.508 8.867,1.141 v 9.012 c 0,0.633 -3.957,1.14 -8.867,1.14 H 95.988 c -4.914,0 -8.867,-0.507 -8.867,-1.14 v -9.012 c 0,-0.633 3.953,-1.141 8.867,-1.141 z"
           style="fill:#009e73;fill-opacity:1;fill-rule:nonzero;stroke:none"
           id="path436" /><path
           d="m 93.441,182.816 1.016,2.938 h 1.406 l -3.484,-9.75 H 90.77 l -3.422,9.781 h 1.312 l 1.016,-2.953 z m -0.343,-1.046 -3.11,0.015 1.594,-4.437 z"
           style="fill:#000000;fill-opacity:1;fill-rule:nonzero;stroke:none"
           id="path438" /><path
           d="m 102.527,175.953 h -1.109 l 0.016,3.625 c -0.469,-0.687 -1.219,-1.062 -2.157,-1.062 -1.812,0.015 -3.015,1.468 -3,3.718 0.016,2.36 1.172,3.828 3.078,3.813 0.954,0 1.625,-0.359 2.235,-1.25 v 0.922 h 0.984 z m -3.062,3.609 c 1.203,0 1.984,1.047 1.984,2.735 0,1.609 -0.765,2.703 -1.937,2.703 -1.235,0 -2.063,-1.078 -2.063,-2.703 0,-1.641 0.797,-2.735 2.016,-2.735 z"
           style="fill:#000000;fill-opacity:1;fill-rule:nonzero;stroke:none"
           id="path440" /><path
           d="m 109.973,175.918 h -1.11 l 0.016,3.625 c -0.469,-0.688 -1.219,-1.063 -2.156,-1.063 -1.813,0.016 -3.016,1.469 -3,3.719 0.015,2.36 1.172,3.828 3.078,3.813 0.953,0 1.625,-0.36 2.234,-1.25 v 0.922 h 0.985 z m -3.063,3.609 c 1.203,0 1.985,1.047 1.985,2.735 0,1.609 -0.766,2.703 -1.938,2.703 -1.234,0 -2.062,-1.078 -2.062,-2.703 0,-1.641 0.796,-2.735 2.015,-2.735 z"
           style="fill:#000000;fill-opacity:1;fill-rule:nonzero;stroke:none"
           id="path442" /><path
           d="m 112.828,178.652 -1.125,0.016 0.031,7.016 1.125,-0.016 z m -0.016,-2.75 -1.124,0.016 0.015,1.406 1.125,-0.015 z"
           style="fill:#000000;fill-opacity:1;fill-rule:nonzero;stroke:none"
           id="path444" /><path
           d="m 117.191,178.641 h -1.156 v -1.922 l -1.109,0.015 v 1.922 h -0.953 v 0.906 h 0.953 l 0.031,5.313 c 0,0.719 0.484,1.109 1.344,1.094 0.297,0 0.547,-0.031 0.922,-0.094 v -0.937 c -0.172,0.031 -0.313,0.046 -0.547,0.046 -0.469,0 -0.61,-0.125 -0.61,-0.625 l -0.031,-4.812 h 1.156 z"
           style="fill:#000000;fill-opacity:1;fill-rule:nonzero;stroke:none"
           id="path446" /><path
           d="m 119.453,178.625 -1.125,0.016 0.031,7.015 1.125,-0.015 z m -0.015,-2.75 -1.126,0.016 0.016,1.406 1.125,-0.016 z"
           style="fill:#000000;fill-opacity:1;fill-rule:nonzero;stroke:none"
           id="path448" /><path
           d="m 124.242,185.625 2.656,-7.031 -1.25,0.015 -1.953,5.688 -1.906,-5.672 h -1.25 l 2.484,7 z"
           style="fill:#000000;fill-opacity:1;fill-rule:nonzero;stroke:none"
           id="path450" /><path
           d="m 133.719,182.441 c 0,-1.062 -0.094,-1.703 -0.281,-2.234 -0.469,-1.141 -1.547,-1.828 -2.86,-1.828 -1.953,0 -3.219,1.5 -3.203,3.812 0.016,2.329 1.219,3.735 3.203,3.719 1.61,0 2.719,-0.937 2.984,-2.453 h -1.124 c -0.282,0.938 -0.922,1.422 -1.813,1.422 -0.719,0 -1.313,-0.328 -1.687,-0.922 -0.282,-0.391 -0.376,-0.781 -0.391,-1.484 z m -5.141,-0.875 c 0.094,-1.312 0.86,-2.156 1.984,-2.156 1.141,0 1.954,0.875 1.954,2.125 z"
           style="fill:#000000;fill-opacity:1;fill-rule:nonzero;stroke:none"
           id="path452" /><path
           d="m 144.887,182.395 c 0,-1.063 -0.094,-1.704 -0.282,-2.235 -0.468,-1.14 -1.546,-1.828 -2.859,-1.828 -1.953,0 -3.219,1.5 -3.203,3.813 0.016,2.328 1.219,3.734 3.203,3.718 1.609,0 2.719,-0.937 2.984,-2.453 h -1.125 c -0.281,0.938 -0.921,1.422 -1.812,1.422 -0.719,0 -1.313,-0.328 -1.688,-0.922 -0.281,-0.39 -0.375,-0.781 -0.39,-1.484 z m -5.141,-0.875 c 0.094,-1.313 0.859,-2.157 1.984,-2.157 1.141,0 1.954,0.875 1.954,2.125 z"
           style="fill:#000000;fill-opacity:1;fill-rule:nonzero;stroke:none"
           id="path454" /><path
           d="m 148.926,178.5 h -1.172 v -1.094 c 0,-0.468 0.266,-0.718 0.781,-0.718 0.094,0 0.141,0 0.391,0.015 l -0.016,-0.922 c -0.25,-0.047 -0.406,-0.062 -0.625,-0.062 -1.031,0 -1.656,0.593 -1.64,1.609 v 1.188 h -0.938 v 0.906 h 0.938 l 0.031,6.109 1.109,-0.015 -0.031,-6.11 h 1.172 z m 3.594,-0.016 h -1.157 v -1.093 c 0,-0.469 0.25,-0.719 0.766,-0.719 0.094,0 0.141,0 0.391,0.016 l -0.016,-0.922 c -0.25,-0.047 -0.391,-0.063 -0.625,-0.063 -1.031,0 -1.641,0.594 -1.625,1.609 v 1.188 h -0.938 v 0.906 h 0.938 l 0.031,6.11 1.11,-0.016 -0.032,-6.109 h 1.157 z"
           style="fill:#000000;fill-opacity:1;fill-rule:nonzero;stroke:none"
           id="path456" /><path
           d="m 159.777,182.328 c 0,-1.062 -0.093,-1.703 -0.281,-2.234 -0.469,-1.141 -1.547,-1.828 -2.859,-1.828 -1.953,0 -3.219,1.5 -3.203,3.812 0.015,2.328 1.218,3.734 3.203,3.719 1.609,0 2.718,-0.938 2.984,-2.453 h -1.125 c -0.281,0.937 -0.922,1.422 -1.812,1.422 -0.719,0 -1.313,-0.328 -1.688,-0.922 -0.281,-0.391 -0.375,-0.782 -0.391,-1.485 z m -5.14,-0.875 c 0.093,-1.312 0.859,-2.156 1.984,-2.156 1.141,0 1.953,0.875 1.953,2.125 z"
           style="fill:#000000;fill-opacity:1;fill-rule:nonzero;stroke:none"
           id="path458" /><path
           d="m 166.66,180.781 c -0.062,-0.687 -0.219,-1.125 -0.484,-1.515 -0.485,-0.641 -1.328,-1.032 -2.313,-1.032 -1.89,0.016 -3.109,1.516 -3.093,3.844 0.015,2.266 1.218,3.703 3.109,3.688 1.687,0 2.734,-1.032 2.859,-2.735 l -1.125,0.016 c -0.172,1.125 -0.75,1.687 -1.703,1.687 -1.234,0 -1.969,-1 -1.984,-2.656 0,-1.75 0.703,-2.812 1.922,-2.812 0.937,0 1.531,0.546 1.687,1.531 z"
           style="fill:#000000;fill-opacity:1;fill-rule:nonzero;stroke:none"
           id="path460" /><path
           d="m 170.543,178.406 h -1.156 v -1.922 l -1.11,0.016 v 1.922 h -0.953 v 0.906 h 0.953 l 0.032,5.313 c 0,0.718 0.484,1.109 1.343,1.093 0.297,0 0.547,-0.031 0.922,-0.093 v -0.938 c -0.172,0.031 -0.312,0.047 -0.547,0.047 -0.468,0 -0.609,-0.125 -0.609,-0.625 l -0.031,-4.813 h 1.156 z"
           style="fill:#000000;fill-opacity:1;fill-rule:nonzero;stroke:none"
           id="path462" /><g
           id="g464"><path
             d="m 89.699,206.051 h 78.469 c 4.91,0 8.867,0.511 8.867,1.144 v 8.746 c 0,0.633 -3.957,1.141 -8.867,1.141 H 89.699 c -4.914,0 -8.867,-0.508 -8.867,-1.141 v -8.746 c 0,-0.633 3.953,-1.144 8.867,-1.144 z"
             style="fill:none;stroke:#cc79a7;stroke-width:4.6724;stroke-linecap:butt;stroke-linejoin:round;stroke-miterlimit:4;stroke-dasharray:none;stroke-opacity:1"
             id="path466" /></g><path
           d="m 89.699,206.051 h 78.469 c 4.91,0 8.867,0.511 8.867,1.144 v 8.746 c 0,0.633 -3.957,1.141 -8.867,1.141 H 89.699 c -4.914,0 -8.867,-0.508 -8.867,-1.141 v -8.746 c 0,-0.633 3.953,-1.144 8.867,-1.144 z"
           style="fill:#cc79a7;fill-opacity:1;fill-rule:nonzero;stroke:none"
           id="path468" /><path
           d="m 81.535,206.734 -1.25,0.016 0.047,9.766 1.25,-0.016 z"
           style="fill:#000000;fill-opacity:1;fill-rule:nonzero;stroke:none"
           id="path470" /><path
           d="m 83.617,209.484 0.031,7.016 1.125,-0.016 -0.015,-3.875 c 0,-1.421 0.734,-2.359 1.89,-2.359 0.875,0 1.438,0.516 1.454,1.359 l 0.015,4.86 h 1.11 l -0.016,-5.297 c -0.016,-1.172 -0.875,-1.922 -2.234,-1.906 -1.047,0 -1.719,0.406 -2.329,1.375 v -1.172 z"
           style="fill:#000000;fill-opacity:1;fill-rule:nonzero;stroke:none"
           id="path472" /><path
           d="m 93.535,209.434 h -1.156 v -1.922 l -1.109,0.015 v 1.922 h -0.954 v 0.906 h 0.954 l 0.031,5.313 c 0,0.719 0.484,1.109 1.344,1.094 0.296,0 0.546,-0.032 0.921,-0.094 v -0.938 c -0.171,0.032 -0.312,0.047 -0.546,0.047 -0.469,0 -0.61,-0.125 -0.61,-0.625 l -0.031,-4.812 h 1.156 z"
           style="fill:#000000;fill-opacity:1;fill-rule:nonzero;stroke:none"
           id="path474" /><path
           d="m 100.555,213.277 c 0,-1.062 -0.094,-1.703 -0.282,-2.234 -0.468,-1.141 -1.546,-1.828 -2.859,-1.828 -1.953,0 -3.219,1.5 -3.203,3.812 0.016,2.328 1.219,3.735 3.203,3.719 1.609,0 2.719,-0.937 2.984,-2.453 h -1.125 c -0.281,0.937 -0.921,1.422 -1.812,1.422 -0.719,0 -1.313,-0.328 -1.688,-0.922 -0.281,-0.391 -0.375,-0.781 -0.39,-1.484 z m -5.141,-0.875 c 0.094,-1.312 0.859,-2.156 1.984,-2.156 1.141,0 1.954,0.875 1.954,2.125 z"
           style="fill:#000000;fill-opacity:1;fill-rule:nonzero;stroke:none"
           id="path476" /><path
           d="m 102.031,209.402 0.031,7.016 1.126,-0.016 -0.016,-3.64 c 0.016,-1.688 0.703,-2.438 2.234,-2.407 v -1.125 c -0.187,-0.031 -0.297,-0.046 -0.422,-0.046 -0.734,0 -1.281,0.437 -1.922,1.468 v -1.265 z"
           style="fill:#000000;fill-opacity:1;fill-rule:nonzero;stroke:none"
           id="path478" /><path
           d="m 112.703,215.711 c -0.109,0.031 -0.172,0.031 -0.234,0.031 -0.391,0 -0.594,-0.203 -0.594,-0.547 l -0.016,-4.125 c -0.015,-1.25 -0.937,-1.922 -2.656,-1.906 -1.031,0 -1.859,0.297 -2.328,0.828 -0.328,0.36 -0.469,0.766 -0.469,1.469 l 1.125,-0.016 c 0.078,-0.859 0.578,-1.25 1.625,-1.25 1.016,0 1.563,0.375 1.578,1.047 v 0.297 c 0,0.484 -0.25,0.656 -1.156,0.766 -1.578,0.203 -1.828,0.265 -2.25,0.437 -0.812,0.36 -1.234,0.985 -1.219,1.891 0,1.265 0.891,2.078 2.297,2.062 0.891,0 1.594,-0.312 2.391,-1.031 0.078,0.719 0.422,1.016 1.156,1.016 0.235,0 0.375,-0.032 0.75,-0.125 z m -1.969,-1.531 c 0,0.375 -0.078,0.593 -0.422,0.906 -0.453,0.406 -1,0.625 -1.656,0.625 -0.875,0 -1.375,-0.391 -1.39,-1.109 0,-0.735 0.468,-1.125 1.687,-1.297 1.188,-0.157 1.406,-0.219 1.781,-0.391 z"
           style="fill:#000000;fill-opacity:1;fill-rule:nonzero;stroke:none"
           id="path480" /><path
           d="m 119.289,211.68 c -0.062,-0.688 -0.219,-1.125 -0.484,-1.516 -0.485,-0.641 -1.328,-1.031 -2.313,-1.031 -1.89,0.015 -3.109,1.515 -3.094,3.844 0.016,2.265 1.219,3.703 3.11,3.687 1.687,0 2.734,-1.031 2.859,-2.734 l -1.125,0.015 c -0.172,1.125 -0.75,1.688 -1.703,1.688 -1.234,0 -1.969,-1 -1.984,-2.656 0,-1.75 0.703,-2.813 1.922,-2.813 0.937,0 1.531,0.547 1.687,1.531 z"
           style="fill:#000000;fill-opacity:1;fill-rule:nonzero;stroke:none"
           id="path482" /><path
           d="m 123.168,209.305 h -1.156 v -1.922 l -1.11,0.015 v 1.922 h -0.953 v 0.907 h 0.953 l 0.032,5.312 c 0,0.719 0.484,1.109 1.343,1.094 0.297,0 0.547,-0.031 0.922,-0.094 v -0.937 c -0.172,0.031 -0.312,0.046 -0.547,0.046 -0.468,0 -0.609,-0.125 -0.609,-0.625 l -0.031,-4.812 h 1.156 z"
           style="fill:#000000;fill-opacity:1;fill-rule:nonzero;stroke:none"
           id="path484" /><path
           d="m 125.434,209.289 -1.125,0.016 0.031,7.015 1.125,-0.015 z m -0.016,-2.75 -1.125,0.016 0.016,1.406 1.125,-0.016 z"
           style="fill:#000000;fill-opacity:1;fill-rule:nonzero;stroke:none"
           id="path486" /><path
           d="m 130.031,209.074 c -1.984,0.016 -3.156,1.422 -3.14,3.781 0.015,2.375 1.187,3.766 3.187,3.75 1.984,-0.015 3.172,-1.421 3.156,-3.734 -0.015,-2.437 -1.172,-3.812 -3.203,-3.797 z m 0.016,1.031 c 1.265,0 2.031,1.016 2.031,2.75 0.016,1.672 -0.766,2.719 -2,2.719 -1.25,0 -2.016,-1.015 -2.031,-2.719 0,-1.703 0.75,-2.75 2,-2.75 z"
           style="fill:#000000;fill-opacity:1;fill-rule:nonzero;stroke:none"
           id="path488" /><path
           d="m 134.773,209.262 0.032,7.015 1.125,-0.015 -0.016,-3.875 c 0,-1.422 0.734,-2.36 1.891,-2.36 0.875,0 1.437,0.516 1.453,1.36 l 0.015,4.859 h 1.11 l -0.016,-5.297 c -0.015,-1.172 -0.875,-1.922 -2.234,-1.906 -1.047,0 -1.719,0.406 -2.328,1.375 v -1.172 z"
           style="fill:#000000;fill-opacity:1;fill-rule:nonzero;stroke:none"
           id="path490" /><path
           d="m 151.898,213.055 c 0,-1.063 -0.093,-1.703 -0.281,-2.235 -0.469,-1.14 -1.547,-1.828 -2.859,-1.828 -1.953,0 -3.219,1.5 -3.203,3.813 0.015,2.328 1.218,3.734 3.203,3.718 1.609,0 2.719,-0.937 2.984,-2.453 h -1.125 c -0.281,0.938 -0.922,1.422 -1.812,1.422 -0.719,0 -1.313,-0.328 -1.688,-0.922 -0.281,-0.39 -0.375,-0.781 -0.39,-1.484 z m -5.14,-0.875 c 0.094,-1.313 0.859,-2.157 1.984,-2.157 1.141,0 1.953,0.875 1.953,2.125 z"
           style="fill:#000000;fill-opacity:1;fill-rule:nonzero;stroke:none"
           id="path492" /><path
           d="m 155.938,209.164 h -1.172 v -1.094 c 0,-0.468 0.265,-0.718 0.781,-0.718 0.094,0 0.141,0 0.391,0.015 l -0.016,-0.922 c -0.25,-0.047 -0.406,-0.062 -0.625,-0.062 -1.031,0 -1.656,0.594 -1.641,1.609 v 1.188 h -0.937 v 0.906 h 0.937 l 0.032,6.109 1.109,-0.015 -0.031,-6.11 h 1.172 z m 3.593,-0.016 h -1.156 v -1.093 c 0,-0.469 0.25,-0.719 0.766,-0.719 0.093,0 0.14,0 0.39,0.016 l -0.015,-0.922 c -0.25,-0.047 -0.391,-0.063 -0.625,-0.063 -1.032,0 -1.641,0.594 -1.625,1.61 v 1.187 h -0.938 v 0.906 h 0.938 l 0.031,6.11 1.109,-0.016 -0.031,-6.109 h 1.156 z"
           style="fill:#000000;fill-opacity:1;fill-rule:nonzero;stroke:none"
           id="path494" /><path
           d="m 166.789,212.988 c 0,-1.062 -0.094,-1.703 -0.281,-2.234 -0.469,-1.141 -1.547,-1.828 -2.86,-1.828 -1.953,0 -3.218,1.5 -3.203,3.812 0.016,2.328 1.219,3.735 3.203,3.719 1.61,0 2.719,-0.937 2.985,-2.453 h -1.125 c -0.281,0.937 -0.922,1.422 -1.813,1.422 -0.718,0 -1.312,-0.328 -1.687,-0.922 -0.281,-0.391 -0.375,-0.781 -0.391,-1.484 z m -5.141,-0.875 c 0.094,-1.312 0.86,-2.156 1.985,-2.156 1.14,0 1.953,0.875 1.953,2.125 z"
           style="fill:#000000;fill-opacity:1;fill-rule:nonzero;stroke:none"
           id="path496" /><path
           d="m 173.672,211.441 c -0.063,-0.687 -0.219,-1.125 -0.484,-1.515 -0.485,-0.641 -1.329,-1.031 -2.313,-1.031 -1.891,0.015 -3.109,1.515 -3.094,3.843 0.016,2.266 1.219,3.703 3.11,3.688 1.687,0 2.734,-1.031 2.859,-2.735 l -1.125,0.016 c -0.172,1.125 -0.75,1.688 -1.703,1.688 -1.234,0 -1.969,-1 -1.984,-2.657 0,-1.75 0.703,-2.812 1.921,-2.812 0.938,0 1.532,0.547 1.688,1.531 z"
           style="fill:#000000;fill-opacity:1;fill-rule:nonzero;stroke:none"
           id="path498" /><path
           d="m 177.551,209.07 h -1.156 v -1.922 l -1.11,0.016 v 1.922 h -0.953 v 0.906 h 0.953 l 0.031,5.313 c 0,0.718 0.485,1.109 1.344,1.093 0.297,0 0.547,-0.031 0.922,-0.093 v -0.938 c -0.172,0.031 -0.312,0.047 -0.547,0.047 -0.469,0 -0.609,-0.125 -0.609,-0.625 l -0.031,-4.812 h 1.156 z"
           style="fill:#000000;fill-opacity:1;fill-rule:nonzero;stroke:none"
           id="path500" /><path
           d="m 54.684,65.078 5.375,-0.016 -0.016,-1.109 -5.375,0.016 v -3.141 l 5.578,-0.016 -0.016,-1.109 -6.828,0.031 0.047,9.86 7.078,-0.032 v -1.109 l -5.828,0.016 z"
           style="fill:#000000;fill-opacity:1;fill-rule:nonzero;stroke:none"
           id="path502" /><path
           d="m 64.734,62.445 h -1.172 v -1.109 c 0,-0.469 0.25,-0.719 0.782,-0.719 0.094,0 0.14,0 0.39,0.016 l -0.015,-0.938 c -0.25,-0.047 -0.407,-0.062 -0.641,-0.062 -1.031,0 -1.656,0.609 -1.64,1.625 v 1.203 h -0.954 v 0.922 h 0.954 l 0.031,6.172 1.125,-0.016 -0.032,-6.172 h 1.172 z m 3.641,-0.015 h -1.172 v -1.11 c 0,-0.468 0.25,-0.718 0.781,-0.718 0.094,0 0.141,0 0.391,0.015 L 68.359,59.68 c -0.25,-0.047 -0.406,-0.063 -0.64,-0.063 -1.031,0 -1.657,0.61 -1.641,1.625 v 1.203 h -0.953 v 0.922 h 0.953 l 0.031,6.172 1.125,-0.016 -0.031,-6.171 h 1.172 z"
           style="fill:#000000;fill-opacity:1;fill-rule:nonzero;stroke:none"
           id="path504" /><path
           d="m 75.691,66.316 c 0,-1.078 -0.078,-1.718 -0.296,-2.25 -0.454,-1.171 -1.547,-1.859 -2.875,-1.859 -1.969,0 -3.235,1.516 -3.219,3.859 0.015,2.344 1.234,3.766 3.234,3.75 1.625,-0.015 2.75,-0.937 3.016,-2.484 H 74.41 c -0.297,0.953 -0.937,1.438 -1.844,1.438 -0.718,0 -1.328,-0.329 -1.703,-0.922 -0.281,-0.407 -0.375,-0.797 -0.39,-1.5 z m -5.187,-0.89 c 0.078,-1.328 0.875,-2.172 2.016,-2.172 1.14,0 1.953,0.875 1.953,2.141 z"
           style="fill:#000000;fill-opacity:1;fill-rule:nonzero;stroke:none"
           id="path506" /><path
           d="m 82.652,64.754 c -0.078,-0.703 -0.218,-1.141 -0.484,-1.531 -0.5,-0.672 -1.344,-1.047 -2.328,-1.047 -1.922,0.015 -3.156,1.531 -3.141,3.89 0.016,2.282 1.235,3.735 3.156,3.719 1.688,0 2.75,-1.031 2.875,-2.765 l -1.14,0.015 c -0.172,1.141 -0.75,1.703 -1.719,1.703 -1.234,0 -1.984,-1 -2,-2.672 0,-1.781 0.719,-2.843 1.953,-2.843 0.938,0 1.531,0.547 1.688,1.547 z"
           style="fill:#000000;fill-opacity:1;fill-rule:nonzero;stroke:none"
           id="path508" /><path
           d="m 86.57,62.348 h -1.172 l -0.015,-1.938 -1.11,0.016 0.016,1.937 H 83.32 v 0.922 h 0.969 l 0.031,5.36 c 0,0.734 0.485,1.125 1.36,1.109 0.297,0 0.547,-0.031 0.922,-0.094 v -0.953 c -0.157,0.047 -0.313,0.063 -0.547,0.063 -0.485,0 -0.625,-0.141 -0.625,-0.641 L 85.398,63.27 h 1.172 z"
           style="fill:#000000;fill-opacity:1;fill-rule:nonzero;stroke:none"
           id="path510" /><path
           d="m 97.918,68.738 c -0.109,0.016 -0.172,0.016 -0.234,0.016 -0.391,0 -0.61,-0.203 -0.61,-0.547 l -0.015,-4.172 c -0.016,-1.25 -0.938,-1.937 -2.688,-1.922 -1.047,0 -1.859,0.297 -2.359,0.844 -0.313,0.359 -0.453,0.766 -0.469,1.469 l 1.141,-0.016 c 0.078,-0.859 0.593,-1.25 1.656,-1.25 1.015,0 1.578,0.375 1.594,1.047 v 0.313 c -0.016,0.484 -0.266,0.656 -1.172,0.781 -1.61,0.203 -1.844,0.25 -2.282,0.422 -0.828,0.375 -1.25,1 -1.234,1.922 0,1.281 0.906,2.093 2.328,2.078 0.891,0 1.61,-0.313 2.406,-1.047 0.094,0.719 0.438,1.031 1.172,1.031 0.25,0 0.391,-0.031 0.766,-0.125 z m -1.984,-1.562 c 0,0.375 -0.094,0.609 -0.438,0.922 -0.453,0.422 -1.016,0.64 -1.672,0.64 -0.875,0 -1.39,-0.406 -1.406,-1.125 0,-0.75 0.484,-1.14 1.703,-1.312 1.203,-0.172 1.438,-0.219 1.813,-0.391 z"
           style="fill:#000000;fill-opacity:1;fill-rule:nonzero;stroke:none"
           id="path512" /><path
           d="m 104.109,64.25 c -0.031,-1.406 -0.937,-2.172 -2.578,-2.172 -1.656,0.016 -2.719,0.875 -2.703,2.188 0,1.109 0.563,1.64 2.234,2.031 l 1.063,0.25 c 0.781,0.187 1.094,0.469 1.094,0.969 0.015,0.687 -0.641,1.125 -1.641,1.125 -0.594,0 -1.109,-0.172 -1.406,-0.469 -0.172,-0.203 -0.25,-0.391 -0.328,-0.891 h -1.203 c 0.078,1.641 1,2.422 2.843,2.407 1.797,0 2.922,-0.891 2.907,-2.266 0,-1.047 -0.594,-1.641 -2,-1.953 l -1.079,-0.266 C 100.391,64.984 100,64.688 100,64.188 c -0.016,-0.657 0.562,-1.063 1.484,-1.063 0.907,0 1.391,0.391 1.438,1.141 z"
           style="fill:#000000;fill-opacity:1;fill-rule:nonzero;stroke:none"
           id="path514" /><path
           d="m 110.898,64.223 c -0.031,-1.407 -0.937,-2.172 -2.578,-2.172 -1.656,0.015 -2.718,0.875 -2.703,2.187 0,1.11 0.563,1.641 2.235,2.032 l 1.062,0.25 c 0.781,0.187 1.094,0.468 1.094,0.968 0.015,0.688 -0.641,1.125 -1.641,1.125 -0.594,0 -1.109,-0.172 -1.406,-0.468 -0.172,-0.204 -0.25,-0.391 -0.328,-0.891 h -1.203 c 0.078,1.641 1,2.422 2.843,2.406 1.797,0 2.922,-0.89 2.907,-2.265 0,-1.047 -0.594,-1.641 -2,-1.954 l -1.078,-0.265 c -0.922,-0.219 -1.313,-0.516 -1.313,-1.016 -0.016,-0.656 0.563,-1.062 1.484,-1.062 0.907,0 1.391,0.39 1.438,1.14 z"
           style="fill:#000000;fill-opacity:1;fill-rule:nonzero;stroke:none"
           id="path516" /><path
           d="m 115.414,62.02 c -2.016,0.015 -3.203,1.437 -3.187,3.828 0.015,2.39 1.203,3.797 3.218,3.781 2.016,-0.016 3.219,-1.438 3.203,-3.766 -0.015,-2.468 -1.187,-3.859 -3.234,-3.843 z m 0,1.046 c 1.281,0 2.047,1.032 2.047,2.782 0.016,1.687 -0.766,2.734 -2.016,2.734 -1.25,0 -2.015,-1.016 -2.031,-2.734 0,-1.719 0.75,-2.782 2,-2.782 z"
           style="fill:#000000;fill-opacity:1;fill-rule:nonzero;stroke:none"
           id="path518" /><path
           d="m 125.637,64.566 c -0.078,-0.703 -0.219,-1.14 -0.485,-1.531 -0.5,-0.672 -1.343,-1.047 -2.328,-1.047 -1.922,0.016 -3.156,1.532 -3.14,3.891 0.015,2.281 1.234,3.734 3.156,3.719 1.687,0 2.75,-1.032 2.875,-2.766 l -1.141,0.016 c -0.172,1.14 -0.75,1.703 -1.719,1.703 -1.234,0 -1.984,-1 -2,-2.672 0,-1.781 0.719,-2.844 1.954,-2.844 0.937,0 1.531,0.547 1.687,1.547 z"
           style="fill:#000000;fill-opacity:1;fill-rule:nonzero;stroke:none"
           id="path520" /><path
           d="m 128.039,62.16 -1.125,0.016 0.031,7.094 1.125,-0.016 z m -0.016,-2.765 -1.14,0.015 0.015,1.422 1.141,-0.016 z"
           style="fill:#000000;fill-opacity:1;fill-rule:nonzero;stroke:none"
           id="path522" /><path
           d="m 136.277,68.57 c -0.109,0.016 -0.172,0.016 -0.234,0.016 -0.391,0 -0.609,-0.203 -0.609,-0.547 l -0.016,-4.172 c -0.016,-1.25 -0.938,-1.937 -2.688,-1.922 -1.046,0 -1.859,0.297 -2.359,0.844 -0.312,0.359 -0.453,0.766 -0.469,1.469 l 1.141,-0.016 c 0.078,-0.859 0.594,-1.25 1.656,-1.25 1.016,0 1.578,0.375 1.594,1.047 v 0.313 c -0.016,0.484 -0.266,0.656 -1.172,0.781 -1.609,0.203 -1.844,0.25 -2.281,0.422 -0.828,0.375 -1.25,1 -1.235,1.922 0,1.281 0.907,2.093 2.329,2.078 0.89,0 1.609,-0.313 2.406,-1.047 0.094,0.719 0.437,1.031 1.172,1.031 0.25,0 0.39,-0.031 0.765,-0.125 z m -1.984,-1.562 c 0,0.375 -0.094,0.609 -0.438,0.922 -0.453,0.422 -1.015,0.64 -1.671,0.64 -0.875,0 -1.391,-0.406 -1.407,-1.125 0,-0.75 0.485,-1.14 1.703,-1.312 1.204,-0.172 1.438,-0.219 1.813,-0.391 z"
           style="fill:#000000;fill-opacity:1;fill-rule:nonzero;stroke:none"
           id="path524" /><path
           d="m 139.82,62.117 h -1.172 l -0.015,-1.937 -1.11,0.015 0.016,1.938 h -0.969 v 0.922 h 0.969 l 0.031,5.359 c 0,0.734 0.485,1.125 1.36,1.109 0.297,0 0.547,-0.031 0.922,-0.093 v -0.953 c -0.157,0.046 -0.313,0.062 -0.547,0.062 -0.485,0 -0.625,-0.141 -0.625,-0.641 l -0.032,-4.859 h 1.172 z"
           style="fill:#000000;fill-opacity:1;fill-rule:nonzero;stroke:none"
           id="path526" /><path
           d="m 146.906,66.008 c 0,-1.078 -0.078,-1.719 -0.297,-2.25 -0.453,-1.172 -1.547,-1.86 -2.875,-1.86 -1.968,0 -3.234,1.516 -3.218,3.86 0.015,2.344 1.234,3.765 3.234,3.75 1.625,-0.016 2.75,-0.938 3.016,-2.485 h -1.141 c -0.297,0.954 -0.937,1.438 -1.844,1.438 -0.719,0 -1.328,-0.328 -1.703,-0.922 -0.281,-0.406 -0.375,-0.797 -0.39,-1.5 z m -5.187,-0.891 c 0.078,-1.328 0.875,-2.172 2.015,-2.172 1.141,0 1.954,0.875 1.954,2.141 z"
           style="fill:#000000;fill-opacity:1;fill-rule:nonzero;stroke:none"
           id="path528" /><path
           d="m 154.16,59.289 h -1.125 l 0.016,3.656 c -0.485,-0.703 -1.235,-1.078 -2.188,-1.078 -1.828,0.016 -3.031,1.5 -3.015,3.75 0.015,2.406 1.172,3.875 3.093,3.86 0.969,0 1.657,-0.36 2.266,-1.266 v 0.937 h 1 z m -3.109,3.641 c 1.219,0 2.015,1.047 2.015,2.75 0,1.64 -0.765,2.734 -1.968,2.734 -1.235,0 -2.078,-1.078 -2.078,-2.719 0,-1.656 0.812,-2.765 2.031,-2.765 z"
           style="fill:#000000;fill-opacity:1;fill-rule:nonzero;stroke:none"
           id="path530" /><path
           d="m 162.191,62.02 h -1.171 l -0.016,-1.938 -1.109,0.016 0.015,1.937 h -0.969 v 0.922 h 0.969 l 0.031,5.359 c 0,0.735 0.485,1.125 1.36,1.11 0.297,0 0.547,-0.031 0.922,-0.094 v -0.953 c -0.157,0.047 -0.313,0.062 -0.547,0.062 -0.485,0 -0.625,-0.14 -0.625,-0.64 l -0.031,-4.86 h 1.171 z"
           style="fill:#000000;fill-opacity:1;fill-rule:nonzero;stroke:none"
           id="path532" /><path
           d="m 166.039,61.801 c -2.016,0.015 -3.203,1.437 -3.187,3.828 0.015,2.391 1.203,3.797 3.218,3.781 2.016,-0.015 3.219,-1.437 3.203,-3.765 -0.015,-2.469 -1.187,-3.86 -3.234,-3.844 z m 0,1.047 c 1.281,0 2.047,1.031 2.047,2.781 0.016,1.687 -0.766,2.734 -2.016,2.734 -1.25,0 -2.015,-1.015 -2.031,-2.734 0,-1.719 0.75,-2.781 2,-2.781 z"
           style="fill:#000000;fill-opacity:1;fill-rule:nonzero;stroke:none"
           id="path534" /><path
           d="m 182.586,62.219 c -0.391,-2.157 -1.641,-3.219 -3.813,-3.203 -1.328,0 -2.39,0.422 -3.109,1.234 -0.891,0.984 -1.375,2.406 -1.359,4 0,1.625 0.5,3.016 1.422,3.953 0.781,0.797 1.75,1.156 3.031,1.156 2.422,-0.015 3.765,-1.312 4.047,-3.937 l -1.297,0.016 c -0.11,0.671 -0.235,1.124 -0.438,1.531 -0.39,0.797 -1.234,1.265 -2.297,1.281 -1.953,0 -3.218,-1.578 -3.218,-4.031 -0.016,-2.531 1.156,-4.094 3.078,-4.094 0.812,-0.016 1.547,0.219 1.953,0.609 0.375,0.344 0.562,0.75 0.719,1.485 z"
           style="fill:#000000;fill-opacity:1;fill-rule:nonzero;stroke:none"
           id="path536" /><path
           d="m 184.18,71.973 1.14,-0.016 -0.015,-3.703 c 0.593,0.734 1.25,1.062 2.172,1.062 1.843,-0.015 3.031,-1.484 3.015,-3.75 -0.015,-2.39 -1.187,-3.875 -3.062,-3.859 -0.953,0 -1.735,0.438 -2.266,1.297 v -1.078 h -1.031 z m 3.062,-9.203 c 1.25,0 2.078,1.078 2.078,2.765 0,1.61 -0.812,2.719 -2.047,2.719 -1.203,0 -1.984,-1.078 -1.984,-2.734 0,-1.672 0.75,-2.75 1.953,-2.75 z"
           style="fill:#000000;fill-opacity:1;fill-rule:nonzero;stroke:none"
           id="path538" /><path
           d="m 200.527,63.738 -4.109,0.016 v 1.109 h 3 v 0.266 c 0,1.766 -1.281,3.031 -3.078,3.031 -1,0.016 -1.906,-0.344 -2.516,-0.984 -0.64,-0.703 -1.031,-1.891 -1.031,-3.094 -0.016,-2.437 1.359,-4.031 3.437,-4.031 1.5,-0.016 2.594,0.765 2.86,2.031 l 1.281,-0.016 c -0.344,-2 -1.875,-3.14 -4.141,-3.125 -1.203,0 -2.171,0.313 -2.953,0.954 -1.125,0.968 -1.765,2.484 -1.75,4.265 0,3.031 1.875,5.125 4.532,5.125 1.343,-0.015 2.406,-0.515 3.375,-1.594 l 0.312,1.313 0.797,-0.016 z"
           style="fill:#000000;fill-opacity:1;fill-rule:nonzero;stroke:none"
           id="path540" /><path
           d="m 204.457,67.52 -1.406,0.015 v 1.406 l 1.406,-0.015 z m -0.031,-5.688 -1.406,0.016 v 1.406 l 1.406,-0.016 z"
           style="fill:#000000;fill-opacity:1;fill-rule:nonzero;stroke:none"
           id="path542" /></g><text
         xml:space="preserve"
         style="font-size:20px;line-height:1;font-family:sans-serif;letter-spacing:0px;word-spacing:0px;stroke-width:0.75"
         x="46.542633"
         y="23.855698"
         id="text1465"><tspan
           sodipodi:role="line"
           x="46.542633"
           y="23.855698"
           style="font-style:normal;font-variant:normal;font-weight:normal;font-stretch:normal;font-size:20px;font-family:helvetica;-inkscape-font-specification:helvetica;stroke-width:0.75"
           id="tspan1467">Predicted values of CpG methylation associated with </tspan><tspan
           sodipodi:role="line"
           x="46.542633"
           y="44.471008"
           style="font-style:normal;font-variant:normal;font-weight:normal;font-stretch:normal;font-size:20px;font-family:helvetica;-inkscape-font-specification:helvetica;stroke-width:0.75"
           id="tspan1479">each effect, for fathers vs their offspring</tspan></text><text
         xml:space="preserve"
         style="font-size:20px;line-height:1;font-family:sans-serif;letter-spacing:0px;word-spacing:0px;stroke-width:0.75"
         x="-448.12491"
         y="13.971256"
         id="text1465-3-6"
         transform="rotate(-90)"><tspan
           sodipodi:role="line"
           x="-448.12491"
           y="13.971256"
           style="font-style:normal;font-variant:normal;font-weight:normal;font-stretch:normal;font-size:20px;font-family:helvetica;-inkscape-font-specification:helvetica;stroke-width:0.75"
           id="tspan1479-7-2">Methylation value of fathers (in %)</tspan></text></g></g></svg>
